<svg width="529" height="559" viewBox="0 0 529 559" fill="none" xmlns="http://www.w3.org/2000/svg">
<path fill-rule="evenodd" clip-rule="evenodd" d="M490.145 486.427C553.8 404.73 537.519 286.483 453.798 222.305C408.273 187.432 352.192 175.71 300.261 185.401C224.62 191.556 183.405 142.649 171.75 107.362C164.265 76.2406 146.078 48.4453 120.314 28.7528C58.6593 -18.4978 108.095 -4.80831 61.1456 55.4481C14.1961 115.704 40.4208 185.401 0.397469 246.969C25.5305 266.278 6.50193 275.887 37.8595 276.516C123.672 278.239 145.69 348.724 148.439 378.681C151.711 431.476 177.346 482.959 223.283 518.165C307.011 582.338 426.491 568.124 490.145 486.427Z" fill="url(#paint0_radial_107_562)"/>
<defs>
<radialGradient id="paint0_radial_107_562" cx="0" cy="0" r="1" gradientUnits="userSpaceOnUse" gradientTransform="translate(400.123 568.312) rotate(-111.393) scale(665.459 300.102)">
<stop stop-color="white"/>
<stop offset="1" stop-color="white" stop-opacity="0"/>
</radialGradient>
</defs>
</svg>
