<svg width="140" height="40" viewBox="0 0 140 40" fill="none" xmlns="http://www.w3.org/2000/svg">
<path d="M50.4438 30.8778V29.0997C50.1016 29.6467 49.5639 30.1431 48.8334 30.5869C48.102 31.0317 47.1084 31.254 45.8524 31.254C43.7965 31.254 42.1918 30.6385 41.0383 29.4075C39.8849 28.1764 39.3086 26.4781 39.3086 24.3125V13.1982H44.3107V23.2522C44.3107 24.3462 44.5392 25.1785 44.996 25.7481C45.4529 26.3186 46.1721 26.6029 47.1544 26.6029C48.1368 26.6029 48.856 26.2838 49.3815 25.6458C49.907 25.0077 50.1693 24.1867 50.1693 23.1837V13.1982H55.1714V30.8778H50.4438ZM45.3392 10.4283L48.2515 3.89679H53.8703L49.2452 10.4283H45.3392Z" fill="black"/>
<path d="M63.087 32.5874C63.087 33.704 62.9094 34.7079 62.5559 35.5965C62.2015 36.486 61.7051 37.2432 61.0659 37.871C60.4257 38.4978 59.6558 38.9819 58.7533 39.3244C57.8508 39.666 56.8515 39.8377 55.7554 39.8377C55.3672 39.8377 55.0419 39.832 54.7787 39.8208C54.5164 39.8095 54.2598 39.7804 54.0078 39.7354V35.392C54.3049 35.4605 54.6931 35.4942 55.1726 35.4942C56.0403 35.4942 56.7425 35.2428 57.2793 34.7417C57.8161 34.2397 58.084 33.5557 58.084 32.6897V13.1982H63.0861V32.5874H63.087ZM60.5517 4.41003C61.3968 4.41003 62.1103 4.70091 62.6932 5.28172C63.276 5.86253 63.5665 6.57565 63.5665 7.41918C63.5665 8.26272 63.2751 8.94112 62.6932 9.52193C62.1103 10.1037 61.3968 10.3936 60.5517 10.3936C59.7065 10.3936 58.9977 10.1027 58.4271 9.52193C57.8555 8.94018 57.5707 8.23926 57.5707 7.41918C57.5707 6.5991 57.8565 5.86347 58.4271 5.28172C58.9977 4.69997 59.7056 4.41003 60.5517 4.41003Z" fill="black"/>
<path d="M86.3474 12.8567C88.3798 12.8567 90.0071 13.4891 91.2292 14.7549C92.4513 16.0197 93.0623 17.7809 93.0623 20.0385V30.8787H88.0602V21.0303C88.0602 19.8902 87.8083 19.0185 87.3063 18.4143C86.8033 17.8109 86.0729 17.5079 85.114 17.5079C84.2228 17.5079 83.5149 17.7762 82.9894 18.3111C82.4639 18.8468 82.1443 19.559 82.0296 20.4485V30.8787H77.0275V21.0303C77.0275 19.8902 76.7755 19.0185 76.2735 18.4143C75.7706 17.8109 75.0627 17.5079 74.149 17.5079C73.144 17.5079 72.3619 17.8325 71.8026 18.4828C71.2423 19.1321 70.9631 19.9934 70.9631 21.065V30.8797H65.9609V13.2001H70.6886V15.0129C71.0768 14.3974 71.6418 13.8841 72.3845 13.4741C73.1262 13.0641 74.1142 12.8586 75.3476 12.8586C76.5809 12.8586 77.6658 13.0978 78.6021 13.5764C79.5384 14.0549 80.3036 14.7511 80.8978 15.6622C81.4233 14.8647 82.1255 14.1975 83.0045 13.6618C83.8834 13.126 84.9974 12.8586 86.3446 12.8586L86.3474 12.8567Z" fill="black"/>
<path d="M100.123 23.6284C100.168 24.7225 100.511 25.5951 101.15 26.2444C101.79 26.8938 102.68 27.2193 103.823 27.2193C104.691 27.2193 105.404 27.0486 105.965 26.7061C106.524 26.3645 106.895 25.8851 107.078 25.2695L112.114 25.5088C111.954 26.3523 111.634 27.1218 111.154 27.817C110.674 28.5123 110.075 29.1166 109.355 29.6299C108.636 30.1431 107.814 30.5419 106.889 30.8271C105.964 31.1124 104.987 31.255 103.959 31.255C102.611 31.255 101.372 31.0439 100.242 30.6226C99.1115 30.2013 98.1469 29.5914 97.3479 28.7929C96.5479 27.9953 95.9265 27.0261 95.4809 25.886C95.0353 24.746 94.8125 23.4699 94.8125 22.0558C94.8125 20.6418 95.0353 19.3376 95.4809 18.2088C95.9265 17.08 96.5479 16.1173 97.3479 15.3188C98.1469 14.5212 99.0955 13.9113 100.192 13.4891C101.288 13.0678 102.499 12.8567 103.823 12.8567C105.148 12.8567 106.261 13.0565 107.3 13.4553C108.339 13.8541 109.23 14.4302 109.973 15.1818C110.715 15.9343 111.286 16.8576 111.686 17.9517C112.085 19.0458 112.286 20.2768 112.286 21.6449V23.6284H100.123ZM103.789 16.7554C102.716 16.7554 101.854 17.0631 101.202 17.6786C100.552 18.2942 100.192 19.1724 100.123 20.3115H107.249C107.203 19.2175 106.9 18.3514 106.341 17.7124C105.78 17.0744 104.931 16.7554 103.788 16.7554H103.789Z" fill="black"/>
<path d="M114.201 30.8778V4.30682H119.203V30.8768H114.201V30.8778Z" fill="black"/>
<path d="M130.579 12.8567C131.926 12.8567 133.177 13.0734 134.33 13.506C135.484 13.9395 136.477 14.5606 137.311 15.3694C138.145 16.1792 138.801 17.1475 139.282 18.2763C139.761 19.4051 140.001 20.6643 140.001 22.0549C140.001 23.4454 139.761 24.7046 139.282 25.8334C138.802 26.9622 138.145 27.9315 137.311 28.7403C136.478 29.5501 135.484 30.1712 134.33 30.6038C133.177 31.0363 131.927 31.2531 130.579 31.2531C129.231 31.2531 127.98 31.0363 126.827 30.6038C125.673 30.1712 124.674 29.5491 123.829 28.7403C122.984 27.9315 122.327 26.9622 121.858 25.8334C121.39 24.7046 121.156 23.4454 121.156 22.0549C121.156 20.6643 121.39 19.4051 121.858 18.2763C122.327 17.1475 122.983 16.1792 123.829 15.3694C124.674 14.5606 125.673 13.9395 126.827 13.506C127.98 13.0734 129.231 12.8567 130.579 12.8567ZM130.579 17.1316C129.277 17.1316 128.226 17.5594 127.427 18.4142C126.627 19.269 126.227 20.4832 126.227 22.0558C126.227 23.6284 126.627 24.8088 127.427 25.6636C128.226 26.5184 129.277 26.9463 130.579 26.9463C131.881 26.9463 132.931 26.5184 133.731 25.6636C134.53 24.8088 134.93 23.6068 134.93 22.0558C134.93 20.5048 134.531 19.269 133.731 18.4142C132.931 17.5594 131.881 17.1316 130.579 17.1316ZM128.523 10.4293L131.435 3.89771H137.054L132.429 10.4293H128.523Z" fill="black"/>
<path d="M13.3462 18.8055V18.6338C13.3462 17.9723 13.883 17.4365 14.5458 17.4365H18.0917C18.7545 17.4365 19.2913 17.9723 19.2913 18.6338V18.8018L32.5698 14.4996V9.77058C32.5698 7.98499 31.1061 6.52311 29.3162 6.52311H22.7658V3.26155L19.5253 0H13.0445L9.80403 3.26155V6.52311H3.2536C1.4637 6.52311 0 7.98499 0 9.77058V14.4818L13.3462 18.8055ZM13.0717 3.29627C13.0717 2.91532 13.381 2.60662 13.7627 2.60662H19.1399C19.5216 2.60662 19.8309 2.91532 19.8309 3.29627V5.28923C19.8309 5.67019 19.5216 5.97889 19.1399 5.97889H13.7627C13.381 5.97889 13.0717 5.67019 13.0717 5.28923V3.29627Z" fill="url(#paint0_linear_116_71)"/>
<path d="M19.2913 20.3181V21.095C19.2913 21.7565 18.7545 22.2923 18.0917 22.2923H14.5458C13.883 22.2923 13.3462 21.7565 13.3462 21.095V20.3218L0 15.9981V27.6303C0 29.4159 1.4637 30.8778 3.2536 30.8778H29.3162C31.1052 30.8778 32.5698 29.4168 32.5698 27.6303V16.0159L19.2913 20.3181Z" fill="url(#paint1_linear_116_71)"/>
<path d="M17.8652 19.9418V19.7889C17.8652 19.2478 17.4258 18.8093 16.8838 18.8093H15.6861C15.1441 18.8093 14.7047 19.2478 14.7047 19.7889V19.9418C14.7047 20.4828 15.1441 20.9214 15.6861 20.9214H16.8838C17.4258 20.9214 17.8652 20.4828 17.8652 19.9418Z" fill="url(#paint2_linear_116_71)"/>
<defs>
<linearGradient id="paint0_linear_116_71" x1="0" y1="0" x2="32.5698" y2="0" gradientUnits="userSpaceOnUse">
<stop stop-color="#00B4DB"/>
<stop offset="1" stop-color="#0083B0"/>
</linearGradient>
<linearGradient id="paint1_linear_116_71" x1="0" y1="15.9981" x2="32.5698" y2="15.9981" gradientUnits="userSpaceOnUse">
<stop stop-color="#00B4DB"/>
<stop offset="1" stop-color="#0083B0"/>
</linearGradient>
<linearGradient id="paint2_linear_116_71" x1="17.8652" y1="18.8093" x2="17.8652" y2="20.9214" gradientUnits="userSpaceOnUse">
<stop stop-color="#00B4DB"/>
<stop offset="1" stop-color="#0083B0"/>
</linearGradient>
</defs>
</svg>
