<svg xmlns="http://www.w3.org/2000/svg" width="242" height="69" viewBox="0 0 242 69" fill="none">
  <g clip-path="url(#clip0_4_129)">
    <path d="M87.1949 53.4825V50.4027C86.6034 51.3502 85.6739 52.2099 84.4112 52.9787C83.147 53.749 81.4293 54.1342 79.2583 54.1342C75.7044 54.1342 72.9305 53.0681 70.9366 50.9358C68.9428 48.8035 67.9466 45.8619 67.9466 42.1109V22.8602H76.5933V40.2744C76.5933 42.1694 76.9882 43.6109 77.7779 44.5975C78.5677 45.5856 79.8108 46.078 81.509 46.078C83.2071 46.078 84.4502 45.5254 85.3586 44.4203C86.267 43.3152 86.7204 41.8931 86.7204 40.1557V22.8602H95.3671V53.4825H87.1949ZM78.3711 18.0626L83.4054 6.74951H93.1181L85.123 18.0626H78.3711Z" fill="white"/>
    <path d="M109.048 56.4436C109.048 58.3776 108.741 60.1166 108.13 61.6557C107.517 63.1964 106.659 64.5079 105.554 65.5952C104.448 66.6808 103.117 67.5194 101.557 68.1126C99.9967 68.7042 98.2693 69.0016 96.3746 69.0016C95.7034 69.0016 95.1412 68.9919 94.6862 68.9724C94.2328 68.9529 93.7892 68.9025 93.3537 68.8245V61.3014C93.8672 61.42 94.5383 61.4785 95.3671 61.4785C96.8669 61.4785 98.0808 61.043 99.0087 60.1751C99.9366 59.3056 100.4 58.1208 100.4 56.6208V22.8602H109.046V56.4436H109.048ZM104.665 7.63849C106.126 7.63849 107.36 8.1423 108.367 9.14831C109.375 10.1543 109.877 11.3895 109.877 12.8505C109.877 14.3116 109.373 15.4866 108.367 16.4926C107.36 17.5003 106.126 18.0025 104.665 18.0025C103.204 18.0025 101.979 17.4987 100.993 16.4926C100.005 15.485 99.5125 14.271 99.5125 12.8505C99.5125 11.4301 100.006 10.1559 100.993 9.14831C101.979 8.14068 103.203 7.63849 104.665 7.63849Z" fill="white"/>
    <path d="M149.259 22.2687C152.772 22.2687 155.585 23.3641 157.698 25.5565C159.81 27.7473 160.866 30.7978 160.866 34.708V53.4841H152.22V36.4259C152.22 34.4513 151.784 32.9414 150.916 31.8948C150.047 30.8498 148.784 30.3249 147.127 30.3249C145.586 30.3249 144.363 30.7897 143.454 31.716C142.546 32.644 141.994 33.8776 141.795 35.4183V53.4841H133.149V36.4259C133.149 34.4513 132.713 32.9414 131.845 31.8948C130.976 30.8498 129.752 30.3249 128.173 30.3249C126.436 30.3249 125.084 30.8872 124.117 32.0134C123.148 33.1381 122.666 34.63 122.666 36.486V53.4857H114.019V22.8635H122.191V26.0034C122.862 24.9373 123.839 24.0483 125.123 23.3381C126.405 22.6278 128.113 22.2719 130.245 22.2719C132.377 22.2719 134.252 22.6864 135.87 23.5152C137.489 24.3441 138.812 25.55 139.839 27.1281C140.747 25.7466 141.961 24.5911 143.48 23.6631C145 22.7351 146.925 22.2719 149.254 22.2719L149.259 22.2687Z" fill="white"/>
    <path d="M173.067 40.9261C173.145 42.8211 173.738 44.3326 174.843 45.4572C175.948 46.5819 177.487 47.1458 179.463 47.1458C180.963 47.1458 182.196 46.85 183.165 46.2568C184.132 45.6652 184.774 44.8347 185.089 43.7686L193.794 44.183C193.518 45.6441 192.965 46.9768 192.135 48.1811C191.306 49.3853 190.269 50.432 189.026 51.321C187.783 52.21 186.361 52.9007 184.762 53.3947C183.163 53.8888 181.475 54.1358 179.699 54.1358C177.368 54.1358 175.227 53.7702 173.273 53.0404C171.319 52.3107 169.651 51.2543 168.27 49.8713C166.887 48.4898 165.813 46.811 165.043 44.8364C164.272 42.8617 163.887 40.6514 163.887 38.2023C163.887 35.7531 164.272 33.494 165.043 31.5389C165.813 29.5838 166.887 27.9163 168.27 26.5332C169.651 25.1518 171.291 24.0954 173.186 23.3641C175.08 22.6343 177.173 22.2687 179.463 22.2687C181.753 22.2687 183.677 22.6148 185.474 23.3056C187.27 23.9963 188.81 24.9942 190.094 26.296C191.376 27.5994 192.364 29.1986 193.055 31.0936C193.745 32.9886 194.091 35.1209 194.091 37.4904V40.9261H173.067ZM179.405 29.0214C177.549 29.0214 176.059 29.5545 174.933 30.6206C173.808 31.6868 173.186 33.208 173.067 35.181H185.385C185.305 33.286 184.782 31.7859 183.815 30.6791C182.846 29.574 181.377 29.0214 179.403 29.0214H179.405Z" fill="white"/>
    <path d="M197.406 53.4825V7.45972H206.053V53.4809H197.406V53.4825Z" fill="white"/>
    <path d="M225.714 22.2687C228.043 22.2687 230.206 22.6441 232.2 23.3933C234.193 24.1442 235.909 25.2201 237.352 26.621C238.794 28.0236 239.928 29.7008 240.759 31.6559C241.587 33.611 242.002 35.7921 242.002 38.2006C242.002 40.6092 241.587 42.7902 240.759 44.7454C239.93 46.7005 238.794 48.3793 237.352 49.7803C235.911 51.1828 234.193 52.2587 232.2 53.0079C230.206 53.7572 228.044 54.1326 225.714 54.1326C223.384 54.1326 221.223 53.7572 219.229 53.0079C217.235 52.2587 215.507 51.1812 214.047 49.7803C212.586 48.3793 211.45 46.7005 210.641 44.7454C209.831 42.7902 209.427 40.6092 209.427 38.2006C209.427 35.7921 209.831 33.611 210.641 31.6559C211.45 29.7008 212.584 28.0236 214.047 26.621C215.507 25.2201 217.235 24.1442 219.229 23.3933C221.223 22.6441 223.384 22.2687 225.714 22.2687ZM225.714 29.6731C223.464 29.6731 221.647 30.4142 220.265 31.8948C218.883 33.3754 218.192 35.4784 218.192 38.2023C218.192 40.9261 218.883 42.9706 220.265 44.4512C221.647 45.9318 223.464 46.6729 225.714 46.6729C227.965 46.6729 229.78 45.9318 231.163 44.4512C232.544 42.9706 233.236 40.8887 233.236 38.2023C233.236 35.5158 232.546 33.3754 231.163 31.8948C229.78 30.4142 227.965 29.6731 225.714 29.6731ZM222.16 18.0643L227.195 6.75116H236.907L228.912 18.0643H222.16Z" fill="white"/>
    <path d="M23.0703 32.5725V32.2751C23.0703 31.1293 23.9982 30.2013 25.1438 30.2013H31.2733C32.419 30.2013 33.3469 31.1293 33.3469 32.2751V32.566L56.3002 25.1144V16.9233C56.3002 13.8306 53.77 11.2985 50.676 11.2985H39.3529V5.64924L33.7515 0H22.5487L16.9472 5.64924V11.2985H5.62417C2.53014 11.2985 0 13.8306 0 16.9233V25.0835L23.0703 32.5725ZM22.5958 5.70937C22.5958 5.04953 23.1304 4.51484 23.7902 4.51484H33.0852C33.745 4.51484 34.2796 5.04953 34.2796 5.70937V9.16132C34.2796 9.82116 33.745 10.3559 33.0852 10.3559H23.7902C23.1304 10.3559 22.5958 9.82116 22.5958 9.16132V5.70937Z" fill="white"/>
    <path d="M33.3469 35.1923V36.538C33.3469 37.6838 32.419 38.6118 31.2733 38.6118H25.1438C23.9982 38.6118 23.0703 37.6838 23.0703 36.538V35.1988L0 27.7098V47.8576C0 50.9504 2.53014 53.4824 5.62417 53.4824H50.676C53.7684 53.4824 56.3002 50.952 56.3002 47.8576V27.7407L33.3469 35.1923Z" fill="white"/>
    <path d="M30.8817 34.5406V34.2757C30.8817 33.3386 30.1222 32.579 29.1852 32.579H27.1149C26.178 32.579 25.4184 33.3386 25.4184 34.2757V34.5406C25.4184 35.4777 26.178 36.2373 27.1149 36.2373H29.1852C30.1222 36.2373 30.8817 35.4777 30.8817 34.5406Z" fill="white"/>
  </g>
  <defs>
    <clipPath id="clip0_4_129">
      <rect width="242" height="69" fill="white"/>
    </clipPath>
  </defs>
</svg>