<svg width="440" height="429" viewBox="0 0 440 429" fill="none" xmlns="http://www.w3.org/2000/svg">
<g clip-path="url(#clip0_2201_207)">
<path d="M35.3276 267.527C28.4192 268.636 25.3242 277.111 25.9249 284.073C26.5256 291.036 29.3987 297.842 28.6282 304.792C27.6618 313.606 20.9754 321.064 20.205 329.904C19.2908 340.335 26.7346 349.579 28.8763 359.815C29.9472 364.795 29.8035 370.05 31.6579 374.796C33.2394 378.833 36.1741 382.198 39.9618 384.317C43.7496 386.436 48.156 387.178 52.4304 386.417C56.7047 385.655 60.5824 383.438 63.4028 380.142C66.2231 376.846 67.8116 372.676 67.8974 368.342C68.0411 360.336 63.1047 352.787 63.7054 344.807C64.1494 338.901 67.6232 333.307 66.8657 327.44C65.9777 320.451 59.5003 315.496 57.2149 308.834C54.9296 302.171 57.1235 294.83 56.3269 287.829C54.9165 275.272 47.9037 266.51 35.3276 267.527Z" fill="#00B4DB"/>
<path d="M-0.0107921 328.326C-1.23836 339.957 3.98535 353.647 9.9665 363.687C16.0444 373.804 25.1932 381.723 36.085 386.296C37.2996 386.805 38.8144 387.222 39.8461 386.4C40.2088 385.999 40.4815 385.525 40.646 385.01C40.8104 384.495 40.8627 383.951 40.7994 383.415C40.8784 371.063 36.9473 359.019 29.5948 349.085C22.2424 339.152 11.8644 331.864 0.015327 328.313" fill="#00B4DB"/>
<g opacity="0.1">
<path d="M-0.0107921 328.326C-1.23836 339.957 3.98535 353.647 9.9665 363.687C16.0444 373.804 25.1932 381.723 36.085 386.296C37.2996 386.805 38.8144 387.222 39.8461 386.4C40.2088 385.999 40.4815 385.525 40.646 385.01C40.8104 384.495 40.8627 383.951 40.7994 383.415C40.8784 371.063 36.9473 359.019 29.5948 349.085C22.2424 339.152 11.8644 331.864 0.015327 328.313" fill="black"/>
</g>
<path d="M50.7637 410.626C50.6237 410.428 50.5096 410.214 50.4241 409.987C50.2152 409.479 49.9279 408.853 49.6014 408.084C48.8962 406.415 47.8515 404.029 46.5194 401.082C43.9076 395.214 39.9114 387.222 34.9489 378.721C30.6901 371.479 26.07 364.455 21.1061 357.676C19.1994 355.069 17.6192 352.995 16.5223 351.574L15.2163 349.905C14.929 349.527 14.7854 349.319 14.8115 349.306C14.9956 349.465 15.1659 349.639 15.3208 349.827L16.6267 351.405C17.8021 352.787 19.4345 354.834 21.3934 357.402C26.4823 364.118 31.17 371.128 35.4321 378.395C39.6818 385.665 43.4974 393.179 46.859 400.899C48.1649 403.859 49.1182 406.284 49.7451 407.979L50.4633 409.935C50.5855 410.155 50.6861 410.387 50.7637 410.626Z" fill="#263238"/>
<path d="M43.2546 299.707C43.3276 300.076 43.3713 300.451 43.3852 300.828C43.4374 301.619 43.5158 302.688 43.6202 304.035C43.8031 306.878 44.0643 310.894 44.3777 315.77C45.0045 325.732 45.8926 339.474 46.9895 354.664C48.0865 369.854 49.1182 383.584 49.8887 393.532C50.2674 398.461 50.5678 402.464 50.7898 405.267C50.8812 406.571 50.9465 407.679 51.0118 408.462C51.0437 408.835 51.0437 409.21 51.0118 409.583C50.9254 409.219 50.8686 408.848 50.842 408.475C50.7637 407.692 50.6461 406.623 50.5025 405.28C50.2413 402.438 49.8626 398.435 49.3924 393.545C48.5044 383.61 47.3683 369.867 46.2974 354.677C45.2265 339.487 44.4691 325.875 43.9076 315.848C43.6855 310.907 43.4897 306.891 43.3591 304.049C43.3591 302.745 43.2807 301.623 43.2546 300.841C43.2288 300.463 43.2288 300.084 43.2546 299.707Z" fill="#263238"/>
<path d="M32.533 394.041H61.7204V415.437C61.7204 419.144 60.2455 422.7 57.6201 425.321C54.9946 427.942 51.4338 429.415 47.7209 429.415C44.1344 429.417 40.6836 428.045 38.0793 425.583C35.4749 423.121 33.9152 419.756 33.7213 416.181L32.533 394.041Z" fill="white"/>
<path d="M412.636 218.033C411.012 216.834 409.009 216.26 406.995 216.416C406.995 215.321 406.995 214.656 406.995 214.656H376.175C376.175 214.656 375.208 234.957 390.775 235.674C397.749 236 401.732 232.884 404.017 228.959C405.164 229.231 406.338 229.375 407.517 229.389C409.237 229.465 410.936 228.985 412.362 228.02C413.147 227.407 413.769 226.611 414.174 225.702C414.579 224.792 414.755 223.798 414.686 222.805C414.729 221.906 414.567 221.01 414.212 220.183C413.857 219.356 413.318 218.621 412.636 218.033ZM410.521 225.582C409.215 226.56 406.851 226.417 405.297 226.143C406.072 223.984 406.577 221.737 406.799 219.454C408.148 219.298 409.511 219.616 410.651 220.354C410.985 220.663 411.244 221.045 411.407 221.47C411.57 221.895 411.633 222.352 411.591 222.805C411.652 223.32 411.586 223.842 411.4 224.326C411.213 224.81 410.911 225.241 410.521 225.582Z" fill="#00B4DB"/>
<path d="M397.945 212.804C398.098 212.576 398.189 212.31 398.206 212.035C398.159 211.643 398.015 211.268 397.787 210.945C397.559 210.622 397.254 210.36 396.9 210.184C396.38 209.932 395.832 209.744 395.267 209.623C394.555 209.468 393.884 209.166 393.295 208.736C392.97 208.453 392.712 208.102 392.538 207.707C392.364 207.313 392.279 206.885 392.29 206.455C392.292 205.505 392.559 204.575 393.06 203.769C394.118 202.061 396.025 200.978 397.37 199.283C398.046 198.356 398.499 197.285 398.691 196.154C398.884 195.023 398.811 193.863 398.48 192.764C398.155 191.571 397.531 190.48 396.665 189.596C395.684 188.733 394.573 188.029 393.374 187.51C392.034 186.959 390.841 186.107 389.887 185.019C389.431 184.41 389.119 183.705 388.973 182.959C388.798 182.174 388.905 181.353 389.273 180.638C389.478 180.27 389.769 179.957 390.122 179.725L390.475 180.312C389.355 181.008 388.473 182.025 387.944 183.231C387.415 184.436 387.264 185.773 387.51 187.066C387.723 188.293 388.327 189.419 389.234 190.274C390.254 191.053 391.155 191.975 391.911 193.012C392.231 193.594 392.385 194.252 392.355 194.915C392.335 195.573 392.161 196.216 391.846 196.793C391.27 197.815 390.454 198.683 389.469 199.322C387.575 200.522 385.63 201.122 384.18 202.217C383.525 202.684 382.979 203.287 382.58 203.985C382.181 204.682 381.938 205.458 381.869 206.259C381.746 207.479 381.958 208.71 382.482 209.819C382.961 210.753 383.644 211.569 384.48 212.205L384.284 212.113C384.107 212.013 383.936 211.9 383.775 211.774C383.137 211.281 382.615 210.653 382.247 209.936C381.657 208.791 381.399 207.504 381.503 206.22C381.559 205.411 381.777 204.622 382.143 203.899C382.568 203.092 383.165 202.389 383.893 201.839C385.395 200.665 387.393 200.014 389.116 198.866C390.012 198.263 390.754 197.459 391.284 196.519C391.557 196.043 391.7 195.503 391.7 194.955C391.7 194.406 391.557 193.866 391.284 193.39C390.535 192.407 389.657 191.53 388.672 190.782C387.66 189.83 386.994 188.568 386.779 187.197C386.508 185.767 386.678 184.289 387.265 182.958C387.853 181.626 388.831 180.504 390.07 179.738L390.409 180.325C390.153 180.497 389.939 180.724 389.782 180.99C389.543 181.597 389.47 182.256 389.571 182.9C389.672 183.544 389.943 184.15 390.357 184.654C391.251 185.651 392.358 186.435 393.596 186.949C394.856 187.499 396.02 188.247 397.043 189.165C397.983 190.13 398.658 191.32 399.002 192.621C399.341 193.811 399.399 195.064 399.172 196.281C398.946 197.498 398.441 198.646 397.696 199.635C396.221 201.422 394.34 202.465 393.361 204.016C392.381 205.568 392.29 207.524 393.426 208.45C394.562 209.375 396.038 209.349 396.926 209.949C397.307 210.153 397.627 210.453 397.857 210.819C398.086 211.185 398.215 211.604 398.232 212.035C398.219 212.257 398.142 212.47 398.01 212.648C398.01 212.765 397.958 212.804 397.945 212.804Z" fill="white" stroke="white"/>
<path d="M205.829 51.8298H55.5564C53.2268 51.8298 51.3383 53.7153 51.3383 56.0412V92.0408C51.3383 94.3668 53.2268 96.2523 55.5564 96.2523H205.829C208.159 96.2523 210.048 94.3668 210.048 92.0408V56.0412C210.048 53.7153 208.159 51.8298 205.829 51.8298Z" fill="white"/>
<path d="M84.7961 81.4535C83.5991 82.9405 81.9874 84.0398 80.1648 84.6126C78.3422 85.1853 76.3904 85.2057 74.5561 84.6712C72.7219 84.1368 71.0875 83.0714 69.8595 81.6097C68.6315 80.1481 67.8651 78.3558 67.6571 76.4594C67.4491 74.563 67.8088 72.6476 68.6909 70.9552C69.5729 69.2629 70.9376 67.8696 72.6125 66.9514C74.2875 66.0333 76.1974 65.6315 78.101 65.7968C80.0046 65.9621 81.8164 66.6872 83.3074 67.8803C84.2985 68.6734 85.1233 69.6538 85.7346 70.7654C86.3459 71.8771 86.7317 73.0981 86.87 74.3587C87.0083 75.6194 86.8963 76.8948 86.5404 78.1122C86.1846 79.3296 85.5918 80.465 84.7961 81.4535Z" fill="#00B4DB"/>
<path d="M194.572 70.7879C194.572 70.9705 174.396 71.1269 149.505 71.1269C124.614 71.1269 104.45 70.9705 104.45 70.7879C104.45 70.6054 124.614 70.4489 149.505 70.4489C174.396 70.4489 194.572 70.5923 194.572 70.7879Z" fill="#A9A9A9"/>
<path d="M157.602 79.5759C157.602 79.7584 145.94 79.9149 131.561 79.9149C117.183 79.9149 105.443 79.7584 105.443 79.5759C105.443 79.3934 117.105 79.2369 131.561 79.2369C146.018 79.2369 157.602 79.4455 157.602 79.5759Z" fill="#A9A9A9"/>
<path d="M205.829 102.641H55.5564C53.2268 102.641 51.3383 104.527 51.3383 106.853V142.852C51.3383 145.178 53.2268 147.064 55.5564 147.064H205.829C208.159 147.064 210.048 145.178 210.048 142.852V106.853C210.048 104.527 208.159 102.641 205.829 102.641Z" fill="white"/>
<path d="M84.7961 132.265C83.5991 133.752 81.9874 134.851 80.1648 135.424C78.3422 135.997 76.3904 136.017 74.5561 135.483C72.7219 134.948 71.0875 133.883 69.8595 132.421C68.6315 130.96 67.8651 129.167 67.6571 127.271C67.4491 125.374 67.8088 123.459 68.6909 121.767C69.5729 120.074 70.9376 118.681 72.6125 117.763C74.2875 116.845 76.1974 116.443 78.101 116.608C80.0046 116.774 81.8164 117.499 83.3074 118.692C85.306 120.296 86.5855 122.626 86.8646 125.171C87.1437 127.716 86.3998 130.267 84.7961 132.265Z" fill="#00B4DB"/>
<path d="M81.6204 123.642L76.4605 128.794L74.1151 126.452" stroke="white" stroke-linecap="round" stroke-linejoin="round"/>
<path d="M194.572 121.599C194.572 121.795 174.396 121.938 149.505 121.938C124.614 121.938 104.45 121.795 104.45 121.599C104.45 121.404 124.614 121.26 149.505 121.26C174.396 121.26 194.572 121.417 194.572 121.599Z" fill="#A9A9A9"/>
<path d="M157.602 130.387C157.602 130.583 145.94 130.726 131.561 130.726C117.183 130.726 105.443 130.583 105.443 130.387C105.443 130.192 117.105 130.048 131.561 130.048C146.018 130.048 157.602 130.205 157.602 130.387Z" fill="#A9A9A9"/>
<path d="M205.829 153.466H55.5564C53.2268 153.466 51.3383 155.351 51.3383 157.677V193.677C51.3383 196.003 53.2268 197.888 55.5564 197.888H205.829C208.159 197.888 210.048 196.003 210.048 193.677V157.677C210.048 155.351 208.159 153.466 205.829 153.466Z" fill="white"/>
<path d="M84.7961 183.089C83.5991 184.576 81.9874 185.676 80.1648 186.248C78.3422 186.821 76.3904 186.842 74.5561 186.307C72.7219 185.773 71.0875 184.707 69.8595 183.246C68.6315 181.784 67.8651 179.992 67.6571 178.095C67.4491 176.199 67.8088 174.284 68.6909 172.591C69.5729 170.899 70.9376 169.506 72.6125 168.587C74.2875 167.669 76.1974 167.267 78.101 167.433C80.0046 167.598 81.8164 168.323 83.3074 169.516C84.2985 170.309 85.1233 171.29 85.7346 172.401C86.3459 173.513 86.7317 174.734 86.87 175.995C87.0083 177.255 86.8963 178.531 86.5404 179.748C86.1846 180.966 85.5918 182.101 84.7961 183.089Z" fill="#00B4DB"/>
<path d="M81.6204 73.0611L76.4605 78.2128L74.1151 75.8711" stroke="white" stroke-linecap="round" stroke-linejoin="round"/>
<path d="M194.572 172.424C194.572 172.606 174.396 172.763 149.505 172.763C124.614 172.763 104.45 172.606 104.45 172.424C104.45 172.241 124.614 172.085 149.505 172.085C174.396 172.085 194.572 172.241 194.572 172.424Z" fill="#A9A9A9"/>
<path d="M81.6204 175.159L76.4605 180.311L74.1151 177.969" stroke="white" stroke-linecap="round" stroke-linejoin="round"/>
<path d="M157.602 181.212C157.602 181.394 145.94 181.551 131.561 181.551C117.183 181.551 105.443 181.394 105.443 181.212C105.443 181.029 117.105 180.873 131.561 180.873C146.018 180.873 157.602 181.029 157.602 181.212Z" fill="#A9A9A9"/>
<path d="M300 321.677L297.506 429.415H292.752L293.052 321.951L300 321.677Z" fill="#263238"/>
<path d="M317.199 320.477L340.34 429.415H345.642L326.38 320.477H317.199Z" fill="#263238"/>
<path d="M273.816 321.677L248.207 429.415H242.905L266.137 321.233L273.816 321.677Z" fill="#263238"/>
<path d="M347.248 203.234C347.248 203.234 376.58 201.565 373.654 235.452C370.729 269.34 369.044 303.71 358.14 315.444C347.235 327.179 237.433 327.583 228.213 317.961C218.993 308.338 245.817 308.755 250.845 308.755C255.873 308.755 286.888 311.676 296.944 285.286C307 258.896 304.492 201.565 347.248 203.234Z" fill="#263238"/>
<path d="M349.129 203.312C349.129 203.312 371.552 207.902 369.462 231.332C367.373 254.763 361.496 295.782 350.592 306.239C339.687 316.696 297.049 318.978 273.894 317.543C247.071 315.861 230.146 310.763 230.146 310.763C230.146 310.763 225.249 313.906 226.724 315.979C228.2 318.052 241.285 326.149 304.688 324.793C368.091 323.437 363.69 314.101 366.315 303.931C368.94 293.761 374.477 239.338 373.706 227.382C372.936 215.425 366.903 205.346 349.129 203.312Z" fill="#455A64"/>
<path d="M286.131 103.867C289.66 102.652 293.491 102.633 297.032 103.811C300.573 104.99 303.627 107.301 305.72 110.386C308.554 114.767 309.22 120.269 312.106 124.611C314.156 127.675 317.186 129.931 319.693 132.643C322.201 135.355 324.251 138.941 323.611 142.578C323.01 145.982 320.124 149.007 320.699 152.423C321.247 155.617 324.617 157.703 325.335 160.885C326.105 164.627 322.501 168.121 318.714 168.708C314.927 169.295 311.166 167.834 307.6 166.426C304.035 165.018 300.248 163.61 296.474 164.288C292.099 165.083 288.743 168.512 284.916 170.807C280.882 173.109 276.264 174.187 271.626 173.912C266.988 173.636 262.53 172.018 258.798 169.255C255.925 167.052 253.404 163.636 254.11 160.128C254.763 156.817 258.027 154.522 258.889 151.275C260.274 146.451 256.277 141.522 256.865 136.529C257.675 129.827 266.007 126.763 268.984 120.713C270.434 117.805 270.564 114.415 271.831 111.429C273.098 108.443 276.441 105.784 279.418 107.061" fill="#263238"/>
<path d="M283.31 164.861C283.741 162.475 282.971 152.436 282.971 152.436C282.971 152.436 274.064 151.314 273.672 142.226C273.281 133.139 274.195 112.238 274.195 112.238L290.61 104.414L304.976 120.713L305.25 164.77L283.31 164.861Z" fill="#FFBE9D"/>
<path d="M275.357 128.262C275.36 128.485 275.428 128.702 275.553 128.886C275.678 129.07 275.855 129.213 276.062 129.298C276.268 129.383 276.495 129.405 276.713 129.362C276.932 129.318 277.133 129.212 277.292 129.055C277.451 128.899 277.559 128.699 277.605 128.481C277.651 128.263 277.631 128.037 277.549 127.83C277.467 127.623 277.325 127.445 277.142 127.318C276.959 127.19 276.742 127.12 276.519 127.115C276.213 127.115 275.92 127.235 275.702 127.45C275.484 127.665 275.36 127.957 275.357 128.262Z" fill="#263238"/>
<path d="M274.626 126.228C274.769 126.385 275.631 125.667 276.846 125.615C278.06 125.563 278.975 126.189 279.105 126.019C279.236 125.85 279.027 125.667 278.622 125.381C278.092 125.012 277.455 124.829 276.81 124.86C276.166 124.89 275.549 125.133 275.057 125.55C274.678 125.863 274.56 126.163 274.626 126.228Z" fill="#263238"/>
<path d="M288.678 128.262C288.66 128.42 288.677 128.58 288.726 128.732C288.775 128.883 288.855 129.023 288.962 129.141C289.068 129.26 289.199 129.355 289.344 129.42C289.49 129.484 289.648 129.518 289.807 129.518C289.967 129.518 290.124 129.484 290.27 129.42C290.416 129.355 290.546 129.26 290.652 129.141C290.759 129.023 290.839 128.883 290.888 128.732C290.937 128.58 290.954 128.42 290.937 128.262C290.954 128.104 290.937 127.944 290.888 127.792C290.839 127.641 290.759 127.501 290.652 127.383C290.546 127.264 290.416 127.169 290.27 127.105C290.124 127.04 289.967 127.006 289.807 127.006C289.648 127.006 289.49 127.04 289.344 127.105C289.199 127.169 289.068 127.264 288.962 127.383C288.855 127.501 288.775 127.641 288.726 127.792C288.677 127.944 288.66 128.104 288.678 128.262Z" fill="#263238"/>
<path d="M288.155 126.463C288.299 126.619 289.161 125.902 290.375 125.85C291.59 125.798 292.504 126.424 292.635 126.254C292.765 126.085 292.556 125.902 292.151 125.615C291.624 125.249 290.991 125.065 290.349 125.094C289.704 125.124 289.085 125.362 288.586 125.772C288.22 126.098 288.09 126.385 288.155 126.463Z" fill="#263238"/>
<path d="M283.571 136.946C282.927 136.754 282.259 136.653 281.586 136.646C281.273 136.646 280.973 136.568 280.92 136.346C280.891 136 280.959 135.652 281.116 135.342C281.39 134.534 281.691 133.673 281.991 132.734C282.81 130.542 283.469 128.294 283.963 126.006C282.975 128.114 282.15 130.293 281.495 132.526C281.208 133.438 280.92 134.299 280.646 135.133C280.464 135.543 280.419 136 280.515 136.437C280.557 136.552 280.627 136.656 280.718 136.737C280.809 136.819 280.919 136.877 281.038 136.907C281.211 136.931 281.387 136.931 281.56 136.907C282.225 137.016 282.903 137.029 283.571 136.946Z" fill="#263238"/>
<path d="M282.971 152.462C287.186 152.325 291.27 150.966 294.724 148.55C294.724 148.55 291.955 155.174 283.075 154.639L282.971 152.462Z" fill="#EB996E"/>
<path d="M284.015 140.153C284.09 139.769 284.258 139.409 284.503 139.105C284.749 138.8 285.066 138.561 285.426 138.406C285.674 138.293 285.943 138.235 286.216 138.235C286.488 138.235 286.758 138.293 287.006 138.406C287.245 138.524 287.441 138.713 287.57 138.946C287.698 139.179 287.752 139.445 287.724 139.71C287.651 140.014 287.486 140.289 287.253 140.499C287.02 140.708 286.729 140.842 286.418 140.883C285.811 140.964 285.193 140.919 284.603 140.753C284.437 140.727 284.277 140.67 284.133 140.584C284.062 140.539 284.005 140.474 283.971 140.398C283.936 140.321 283.924 140.236 283.937 140.153" fill="#EB996E"/>
<path d="M287.045 136.907C287.123 136.907 287.267 137.233 287.228 137.819C287.155 138.605 286.797 139.338 286.222 139.88C285.653 140.418 284.904 140.729 284.12 140.753C283.519 140.753 283.18 140.597 283.206 140.518C283.232 140.44 284.629 140.44 285.752 139.384C286.875 138.328 286.849 136.894 287.045 136.907Z" fill="#263238"/>
<path d="M273.45 111.208C273.778 113.84 275.055 116.263 277.043 118.022C279.031 119.781 281.594 120.757 284.25 120.765L281.782 115.341C283.976 117.883 286.249 120.556 289.265 122.017C292.282 123.477 296.213 123.712 298.772 121.521C299.608 123.751 299.595 126.215 300.366 128.458C301.136 130.7 302.977 139.984 305.276 139.619C307.574 139.254 308.972 129.957 309.52 127.884C310.179 124.936 310.137 121.875 309.395 118.947C308.653 116.019 307.233 113.305 305.25 111.025C302.912 108.303 299.973 106.161 296.664 104.767C293.355 103.373 289.767 102.766 286.183 102.993C282.988 103.134 279.906 104.219 277.329 106.11C275.128 107.863 273.593 110.315 272.98 113.059" fill="#263238"/>
<path d="M261.253 152.149C261.038 152.135 260.826 152.086 260.626 152.005C260.046 151.83 259.486 151.594 258.955 151.301C256.959 150.238 255.31 148.628 254.201 146.66C253.342 145.206 252.821 143.579 252.676 141.898C252.531 140.216 252.767 138.524 253.365 136.946C254.073 135.08 255.214 133.409 256.695 132.069C258.284 130.627 260.233 129.641 262.337 129.214C263.314 129.076 264.225 128.644 264.949 127.975C265.558 127.238 265.911 126.323 265.954 125.368C266.111 123.451 265.354 121.586 265.145 119.709C264.917 117.902 265.288 116.07 266.202 114.493C267.006 113.128 268.178 112.016 269.585 111.286C270.891 110.621 272.053 110.191 273.059 109.747C273.939 109.405 274.78 108.968 275.566 108.443C276.209 107.967 276.785 107.405 277.277 106.774C277.204 106.975 277.103 107.164 276.976 107.335C276.62 107.842 276.178 108.283 275.67 108.639C274.893 109.215 274.051 109.701 273.163 110.086C272.158 110.556 270.969 111.025 269.768 111.69C268.458 112.402 267.376 113.469 266.647 114.767C265.801 116.244 265.47 117.959 265.706 119.644C265.915 121.43 266.712 123.294 266.568 125.433C266.525 126.544 266.111 127.608 265.393 128.458C264.575 129.23 263.541 129.735 262.428 129.905C260.506 130.309 258.716 131.188 257.222 132.462C255.727 133.735 254.577 135.362 253.875 137.194C253.297 138.691 253.058 140.296 253.173 141.896C253.288 143.497 253.755 145.052 254.541 146.451C255.584 148.375 257.126 149.983 259.007 151.106C260.391 151.862 261.253 152.084 261.253 152.149Z" fill="#263238"/>
<path d="M320.372 164.092C320.372 164.092 321.143 163.571 322.488 162.606C324.436 161.318 325.983 159.511 326.954 157.39C327.548 155.918 327.64 154.291 327.215 152.762C326.98 151.934 326.529 151.183 325.91 150.584C325.204 149.967 324.423 149.441 323.585 149.02C322.621 148.502 321.808 147.744 321.226 146.818C320.645 145.892 320.314 144.831 320.268 143.739C320.177 141.379 321.639 139.423 322.162 137.324C322.607 135.214 322.258 133.014 321.182 131.144C320.187 129.363 318.857 127.791 317.264 126.515C314.274 124.011 311.153 122.173 308.998 119.996C307.222 118.375 305.899 116.322 305.158 114.037C304.98 113.412 304.875 112.769 304.845 112.12C304.811 111.896 304.811 111.667 304.845 111.442C304.953 112.293 305.128 113.135 305.367 113.959C306.184 116.151 307.53 118.108 309.285 119.657C311.427 121.704 314.509 123.464 317.617 126.006C319.266 127.326 320.645 128.951 321.678 130.792C322.848 132.804 323.225 135.179 322.736 137.454C322.135 139.736 320.738 141.614 320.843 143.687C320.875 144.7 321.179 145.686 321.724 146.541C322.268 147.397 323.033 148.091 323.938 148.55C324.818 149.003 325.638 149.564 326.38 150.219C327.053 150.901 327.539 151.746 327.79 152.67C328.219 154.315 328.1 156.054 327.451 157.625C326.9 158.892 326.096 160.032 325.087 160.976C324.328 161.688 323.506 162.329 322.632 162.893C321.926 163.349 321.326 163.675 320.973 163.87C320.783 163.97 320.581 164.045 320.372 164.092Z" fill="#263238"/>
<path d="M273.15 122.082C274.412 121.034 275.301 119.607 275.684 118.014C276.056 116.428 276.253 114.805 276.271 113.176C276.271 112.707 276.271 112.094 275.775 111.977C275.279 111.86 274.965 112.303 274.756 112.707C273.16 115.726 272.596 119.183 273.15 122.551L273.437 122.277" fill="#263238"/>
<path d="M250.362 422.961L250.113 411.226L272.105 410.626L272.641 427.772L271.335 427.902C265.275 428.398 240.489 430.015 236.401 428.893C231.791 427.655 250.362 422.961 250.362 422.961Z" fill="#00B4DB"/>
<g opacity="0.5">
<path d="M264.661 427.837C264.936 425.973 265.895 424.276 267.352 423.078C268.768 421.877 270.588 421.257 272.445 421.344L272.615 427.472L264.661 427.837Z" fill="white"/>
</g>
<g opacity="0.4">
<path d="M241.298 425.581C241.298 425.581 234.769 427.641 235.644 428.698C236.519 429.754 261.593 429.063 272.641 427.785V427.302L243.349 428.359C243.349 428.359 242.578 425.594 241.298 425.581Z" fill="white"/>
</g>
<path d="M273.006 427.276H272.628L271.544 427.368L267.548 427.654C264.178 427.863 259.516 428.098 254.358 428.254C249.199 428.411 244.537 428.424 241.155 428.398C244.537 428.398 249.199 428.306 254.358 428.163C259.516 428.02 264.165 427.811 267.548 427.654L271.544 427.446H272.628L273.006 427.276Z" fill="#263238"/>
<path d="M243.336 428.698C243.135 428.04 242.863 427.406 242.526 426.807C242.123 426.256 241.654 425.757 241.129 425.321C241.798 425.592 242.368 426.06 242.762 426.664C243.157 427.268 243.357 427.977 243.336 428.698Z" fill="#263238"/>
<path d="M249.735 425.229C249.669 425.229 249.343 424.903 249.016 424.408C248.69 423.912 248.455 423.482 248.52 423.43C248.586 423.378 248.899 423.769 249.238 424.264C249.47 424.548 249.639 424.877 249.735 425.229Z" fill="#263238"/>
<path d="M251.485 424.238C251.485 424.304 251.08 424.082 250.701 423.743C250.322 423.404 250.035 423.104 250.074 423.052C250.113 423 250.479 423.208 250.871 423.547C251.263 423.886 251.537 424.186 251.485 424.238Z" fill="#263238"/>
<path d="M252.556 422.139C252.192 422.289 251.798 422.351 251.406 422.322C251.021 422.367 250.63 422.336 250.257 422.23C251.005 422.017 251.793 421.986 252.556 422.139Z" fill="#263238"/>
<path d="M252.895 420.666C252.516 420.939 252.057 421.081 251.589 421.07C251.15 421.152 250.697 421.107 250.283 420.94C250.714 420.856 251.151 420.812 251.589 420.809C252.02 420.729 252.457 420.681 252.895 420.666Z" fill="#263238"/>
<path d="M248.925 423.339C248.458 423.416 247.982 423.416 247.515 423.339C247.002 423.288 246.495 423.192 246 423.052C245.702 422.973 245.413 422.864 245.138 422.726C244.968 422.631 244.838 422.478 244.772 422.296C244.746 422.191 244.751 422.082 244.786 421.98C244.821 421.878 244.884 421.789 244.968 421.722C245.498 421.443 246.107 421.355 246.694 421.471C247.281 421.587 247.811 421.901 248.194 422.361C248.418 422.632 248.582 422.948 248.677 423.287C248.706 423.415 248.706 423.549 248.677 423.678C248.519 423.247 248.29 422.846 247.998 422.491C247.672 422.125 247.245 421.862 246.77 421.735C246.21 421.564 245.605 421.621 245.086 421.891C244.877 422.074 244.968 422.335 245.216 422.478C245.475 422.609 245.746 422.714 246.026 422.791C246.504 422.942 246.993 423.055 247.489 423.13C248.39 423.313 248.925 423.287 248.925 423.339Z" fill="#263238"/>
<path d="M248.572 423.417C248.38 423.13 248.309 422.778 248.377 422.439C248.412 422.069 248.533 421.712 248.729 421.396C248.844 421.184 249.011 421.004 249.214 420.874C249.417 420.744 249.65 420.668 249.891 420.653C250.036 420.678 250.165 420.76 250.251 420.879C250.336 420.998 250.371 421.147 250.349 421.292C250.314 421.516 250.239 421.733 250.127 421.931C249.945 422.243 249.726 422.532 249.474 422.791C249.267 423.054 248.998 423.26 248.69 423.391C248.69 423.391 248.964 423.13 249.343 422.674C249.554 422.403 249.742 422.115 249.905 421.813C250.087 421.5 250.205 420.966 249.905 420.914C249.604 420.861 249.199 421.253 248.99 421.539C248.803 421.819 248.674 422.134 248.612 422.465C248.561 422.78 248.548 423.099 248.572 423.417Z" fill="#263238"/>
<path d="M272.327 421.279C272.327 421.279 271.7 421.279 270.708 421.383C269.413 421.556 268.194 422.095 267.195 422.936C266.196 423.776 265.457 424.884 265.066 426.129C264.766 427.081 264.74 427.707 264.701 427.707C264.662 427.707 264.701 427.55 264.701 427.263C264.724 426.861 264.794 426.463 264.91 426.077C265.267 424.776 266.008 423.612 267.038 422.739C268.077 421.875 269.35 421.34 270.695 421.2C271.098 421.154 271.506 421.154 271.909 421.2C272.052 421.205 272.193 421.231 272.327 421.279Z" fill="#263238"/>
<path d="M269.794 412.204C269.994 413.699 270.099 415.206 270.107 416.715C270.2 418.217 270.2 419.724 270.107 421.226C269.914 419.734 269.81 418.232 269.794 416.728C269.709 415.221 269.709 413.711 269.794 412.204Z" fill="#263238"/>
<path d="M261.841 425.764C260.799 426.049 259.721 426.185 258.641 426.168C257.564 426.255 256.48 426.202 255.416 426.012C255.416 425.933 256.865 426.012 258.628 425.907C260.391 425.803 261.828 425.686 261.841 425.764Z" fill="#263238"/>
<path d="M266.15 425.646C266.15 425.646 266.046 425.946 265.902 426.285C265.758 426.624 265.693 426.911 265.615 426.911C265.536 426.911 265.497 426.559 265.615 426.181C265.732 425.803 266.098 425.594 266.15 425.646Z" fill="#263238"/>
<path d="M267.783 423.586C267.783 423.586 267.704 423.86 267.482 424.095C267.26 424.33 267.038 424.486 266.986 424.434C266.934 424.382 267.064 424.16 267.286 423.912C267.508 423.665 267.665 423.534 267.783 423.586Z" fill="#263238"/>
<path d="M270.016 422.595C270.016 422.674 269.715 422.674 269.389 422.791C269.063 422.908 268.841 423.104 268.788 423.052C268.736 423 268.906 422.687 269.298 422.543C269.689 422.4 270.042 422.53 270.016 422.595Z" fill="#263238"/>
<path d="M271.7 422.113C271.7 422.178 271.609 422.296 271.426 422.374C271.243 422.452 271.074 422.452 271.048 422.374C271.021 422.296 271.139 422.191 271.322 422.113C271.505 422.035 271.7 422.048 271.7 422.113Z" fill="#263238"/>
<path d="M197.263 360.232L202.356 349.671L222.245 359.084L214.945 374.613L213.639 374.105C208.01 371.823 185.17 362.057 182.036 359.215C178.562 356.046 197.263 360.232 197.263 360.232Z" fill="#00B4DB"/>
<g opacity="0.5">
<path d="M207.801 371.041C208.892 369.509 210.51 368.432 212.346 368.016C214.154 367.593 216.056 367.863 217.674 368.772L215.062 374.327L207.801 371.041Z" fill="white"/>
</g>
<g opacity="0.4">
<path d="M187.977 358.472C187.977 358.472 181.252 357.376 181.526 358.693C181.8 360.01 204.497 370.741 214.932 374.6L215.115 374.144L188.526 361.849C188.526 361.849 189.114 359.071 187.977 358.472Z" fill="white"/>
</g>
<path d="M215.428 374.287C215.305 374.267 215.186 374.227 215.075 374.17L214.057 373.766L210.322 372.214C207.214 370.91 202.956 368.981 198.281 366.777C193.606 364.574 189.44 362.501 186.449 360.949L182.897 359.098L181.944 358.576L181.618 358.367L181.97 358.524L182.95 358.993L186.528 360.779C189.558 362.279 193.737 364.339 198.399 366.543C203.061 368.746 207.305 370.663 210.4 372.032L214.044 373.662L215.036 374.118L215.428 374.287Z" fill="#263238"/>
<path d="M188.382 362.175C188.507 361.504 188.555 360.822 188.526 360.141C188.403 359.466 188.211 358.806 187.951 358.172C188.453 358.699 188.749 359.388 188.787 360.115C188.915 360.828 188.771 361.563 188.382 362.175Z" fill="#263238"/>
<path d="M195.656 361.979C195.578 361.979 195.46 361.51 195.395 360.923C195.33 360.336 195.317 359.841 195.395 359.828C195.556 360.157 195.645 360.517 195.656 360.884C195.735 361.484 195.735 361.966 195.656 361.979Z" fill="#263238"/>
<path d="M197.667 361.888C197.602 361.888 197.393 361.562 197.184 361.092C196.975 360.623 196.884 360.219 196.962 360.193C197.041 360.167 197.236 360.519 197.432 360.988C197.628 361.458 197.733 361.862 197.667 361.888Z" fill="#263238"/>
<path d="M199.574 360.493C199.187 360.458 198.812 360.338 198.477 360.141C198.105 360.018 197.766 359.813 197.485 359.541C197.872 359.575 198.247 359.695 198.582 359.893C199.169 360.167 199.613 360.427 199.574 360.493Z" fill="#263238"/>
<path d="M200.554 359.345C200.104 359.361 199.656 359.286 199.237 359.124C198.817 358.963 198.434 358.719 198.111 358.406C198.924 358.722 199.738 359.035 200.554 359.345Z" fill="#263238"/>
<path d="M195.8 359.932C195.332 359.807 194.889 359.599 194.494 359.319C194.057 359.044 193.646 358.73 193.266 358.38C193.038 358.168 192.829 357.937 192.64 357.689C192.532 357.529 192.49 357.333 192.522 357.142C192.542 357.036 192.594 356.94 192.671 356.865C192.749 356.79 192.847 356.741 192.953 356.724C193.342 356.717 193.728 356.797 194.082 356.958C194.436 357.119 194.75 357.357 195 357.654C195.251 357.952 195.431 358.301 195.529 358.677C195.627 359.053 195.639 359.446 195.565 359.828C195.565 360.062 195.447 360.193 195.434 360.18C195.488 359.745 195.466 359.303 195.369 358.876C195.237 358.404 194.974 357.98 194.612 357.65C194.405 357.448 194.16 357.289 193.891 357.184C193.621 357.078 193.334 357.029 193.044 357.037C192.77 357.037 192.731 357.363 192.901 357.598C193.067 357.833 193.255 358.051 193.462 358.25C193.824 358.601 194.213 358.923 194.625 359.215C195.33 359.658 195.826 359.893 195.8 359.932Z" fill="#263238"/>
<path d="M195.447 359.841C195.411 359.498 195.504 359.154 195.709 358.876C195.913 358.563 196.185 358.301 196.505 358.107C196.703 357.969 196.932 357.883 197.172 357.858C197.412 357.833 197.654 357.869 197.876 357.963C197.993 358.054 198.07 358.185 198.092 358.331C198.114 358.476 198.079 358.625 197.994 358.745C197.867 358.93 197.702 359.086 197.511 359.202C197.207 359.408 196.878 359.574 196.531 359.697C196.226 359.827 195.896 359.885 195.565 359.867C195.565 359.867 195.917 359.762 196.466 359.515C196.783 359.377 197.085 359.207 197.367 359.006C197.667 358.824 198.02 358.393 197.72 358.185C197.537 358.127 197.345 358.11 197.155 358.135C196.966 358.16 196.784 358.226 196.623 358.328C196.332 358.497 196.075 358.718 195.865 358.98C195.693 359.25 195.553 359.539 195.447 359.841Z" fill="#263238"/>
<path d="M217.596 368.668C217.596 368.668 217.06 368.342 216.107 368.029C214.875 367.604 213.548 367.537 212.279 367.834C211.01 368.132 209.851 368.783 208.938 369.711C208.219 370.415 207.919 371.015 207.88 370.95C207.922 370.805 207.989 370.668 208.076 370.545C208.282 370.201 208.523 369.877 208.794 369.581C209.706 368.583 210.898 367.884 212.215 367.574C213.531 367.265 214.911 367.36 216.172 367.846C216.548 367.99 216.907 368.174 217.243 368.394C217.491 368.55 217.609 368.655 217.596 368.668Z" fill="#263238"/>
<path d="M219.463 359.436C218.958 360.856 218.369 362.245 217.7 363.596C217.113 364.98 216.446 366.33 215.702 367.638C216.208 366.218 216.796 364.829 217.465 363.478C218.046 362.091 218.713 360.741 219.463 359.436Z" fill="#263238"/>
<path d="M206.208 367.925C205.155 367.698 204.136 367.335 203.178 366.842C202.18 366.426 201.236 365.887 200.371 365.239C200.371 365.174 201.677 365.865 203.283 366.608C204.889 367.351 206.234 367.859 206.208 367.925Z" fill="#263238"/>
<path d="M210.113 369.763C210.113 369.841 209.878 369.985 209.604 370.219C209.329 370.454 209.133 370.689 209.068 370.65C209.003 370.611 209.068 370.285 209.434 370.024C209.799 369.763 210.1 369.698 210.113 369.763Z" fill="#263238"/>
<path d="M212.451 368.629C212.451 368.707 212.242 368.85 211.941 368.955C211.641 369.059 211.367 369.111 211.34 369.033C211.314 368.955 211.549 368.824 211.85 368.707C212.15 368.59 212.424 368.564 212.451 368.629Z" fill="#263238"/>
<path d="M214.945 368.798C214.945 368.798 214.631 368.72 214.292 368.694C213.952 368.668 213.665 368.694 213.639 368.694C213.613 368.694 213.9 368.433 214.331 368.485C214.762 368.537 214.997 368.746 214.945 368.798Z" fill="#263238"/>
<path d="M216.629 369.111C216.629 369.111 216.46 369.229 216.264 369.215C216.068 369.202 215.911 369.124 215.924 369.059C215.937 368.994 216.094 368.929 216.277 368.942C216.46 368.955 216.629 369.033 216.629 369.111Z" fill="#263238"/>
<path d="M342.221 206.781L337.545 183.311C334.15 164.196 307.248 162.893 307.248 162.893L286.066 162.541C286.066 162.541 270.395 160.441 260.744 171.316C250.753 182.568 238.465 195.88 238.465 195.88L247.841 219.441L270.042 201.187C268.185 204.439 267.163 208.098 267.064 211.84C267.064 218.085 273.594 220.967 273.594 220.967L275.618 239.912L269.089 270.591L338.055 267.827C336.891 257.537 333.403 247.644 327.855 238.895L329.161 206.781H342.221Z" fill="#00B4DB"/>
<path d="M312.667 180.534C312.852 181.016 312.975 181.52 313.033 182.033C313.255 183.142 313.516 184.511 313.843 186.14C314.548 189.765 315.462 194.485 316.455 199.701C317.447 204.916 318.335 209.819 318.884 213.313C319.171 215.06 319.367 216.481 319.484 217.459C319.579 217.966 319.609 218.483 319.576 218.998C319.403 218.512 319.285 218.01 319.223 217.498C319.001 216.39 318.727 215.021 318.414 213.391C317.708 209.766 316.794 205.046 315.802 199.831C314.809 194.615 313.921 189.726 313.373 186.219C313.085 184.471 312.889 183.063 312.772 182.072C312.687 181.564 312.652 181.049 312.667 180.534Z" fill="#263238"/>
<path d="M342.625 205.555C338.387 205.917 334.132 206.048 329.88 205.946C325.629 206.072 321.374 205.972 317.134 205.646C321.372 205.292 325.627 205.166 329.88 205.268C334.13 205.142 338.385 205.238 342.625 205.555Z" fill="#263238"/>
<path d="M345.25 226.782C343.944 215.542 342.077 205.92 342.077 205.92H317.656C317.656 205.92 320.686 220.262 320.02 223.522C319.419 226.404 272.105 228.307 259.777 228.503C259.033 227.955 257.975 228.881 257.022 228.046C256.18 227.3 255.47 226.419 254.919 225.439C254.192 224.249 253.625 222.969 253.235 221.631C253.188 221.381 253.07 221.15 252.893 220.966C252.717 220.782 252.491 220.654 252.242 220.597C251.993 220.54 251.733 220.557 251.495 220.646C251.256 220.735 251.048 220.892 250.897 221.097C250.401 222.153 250.962 225.66 253.3 229.05C255.638 232.44 249.5 230.68 247.254 230.081C245.007 229.481 237.955 227.955 237.237 228.516C236.166 229.337 236.832 230.654 239.091 231.202C241.351 231.749 248.024 233.81 247.658 235.113C247.293 236.417 235.905 233.066 235.905 233.066C235.905 233.066 233.58 231.984 233.11 233.353C232.275 235.831 244.642 238.334 245.83 238.569C246.653 238.725 246.3 240.042 245.425 239.873C244.55 239.703 234.116 236.391 233.241 238.908C232.562 240.837 243.401 241.072 245.19 242.976C246.979 244.879 236.989 241.946 236.414 243.81C236.205 244.514 240.332 244.827 246.339 245.675C252.48 246.26 258.651 246.478 264.818 246.327C278.674 247.083 327.673 248.1 338.133 247.357C350.304 246.431 345.72 230.693 345.25 226.782Z" fill="#FFBE9D"/>
<path d="M267.652 207.446C267.842 206.372 268.122 205.317 268.488 204.29C268.775 203.312 269.128 202.165 269.572 200.9C269.794 200.274 270.042 199.596 270.316 198.931C270.473 198.566 270.669 198.253 270.76 197.953C270.864 197.625 270.908 197.28 270.891 196.936C270.827 196.209 270.718 195.486 270.564 194.772C270.434 194.068 270.303 193.39 270.173 192.725C269.964 191.421 269.755 190.3 269.572 189.231C269.33 188.165 269.198 187.077 269.18 185.984C269.58 187.002 269.869 188.06 270.042 189.139C270.277 190.195 270.525 191.356 270.786 192.595L271.217 194.655C271.395 195.4 271.513 196.159 271.57 196.923C271.592 197.343 271.534 197.763 271.4 198.162C271.263 198.514 271.106 198.858 270.93 199.192C270.656 199.844 270.395 200.496 270.159 201.122C269.729 202.308 269.311 203.417 268.945 204.434C268.641 205.487 268.207 206.499 267.652 207.446Z" fill="#263238"/>
<path d="M296.121 118.561C298.002 120.987 300.039 123.777 299.634 126.815C299.308 129.422 297.179 131.835 297.532 134.495C297.95 137.559 301.45 139.567 301.685 142.657C301.828 145.264 299.621 147.194 298.067 149.176C296.927 150.641 296.087 152.317 295.596 154.107C295.106 155.897 294.973 157.766 295.207 159.607C295.465 161.438 296.136 163.186 297.169 164.72C298.203 166.254 299.573 167.533 301.175 168.46C302.799 169.357 304.629 169.819 306.485 169.801C308.341 169.783 310.16 169.285 311.766 168.356C314.598 166.384 316.66 163.496 317.604 160.181C319.067 155.982 319.458 151.054 316.964 147.351C315.945 145.864 314.47 144.586 314.143 142.813C313.725 140.571 315.319 138.458 315.567 136.19C315.906 133.152 313.804 130.374 311.479 128.366C309.155 126.358 306.412 124.768 304.675 122.251" fill="#263238"/>
<g opacity="0.3">
<path d="M313.49 186.884C314.339 199.922 314.796 211.983 315.11 225.061C316.853 224.985 318.546 224.455 320.02 223.522C320.686 217.942 316.455 200.952 313.49 186.884Z" fill="black"/>
</g>
<path d="M281.652 180.873C281.462 179.878 281.566 178.85 281.952 177.913C282.396 176.322 283.088 175.162 283.258 175.24C283.201 176.222 282.98 177.187 282.605 178.096C282.436 179.066 282.114 180.003 281.652 180.873Z" fill="#FAFAFA"/>
<path d="M267.783 180.834C267.678 180.99 266.751 180.534 265.85 179.673C264.949 178.813 264.426 177.913 264.544 177.809C264.662 177.704 265.419 178.369 266.281 179.178C267.143 179.986 267.874 180.677 267.783 180.834Z" fill="#FAFAFA"/>
<path d="M254.528 191.656C254.528 191.656 254.41 191.538 254.332 191.304H254.632C254.836 192.368 254.836 193.46 254.632 194.524C254.554 195.741 254.098 196.904 253.326 197.849C253.48 196.688 253.711 195.538 254.018 194.407C254.253 193.103 254.306 191.877 254.384 191.317H254.684C254.606 191.577 254.58 191.643 254.528 191.656Z" fill="#FAFAFA"/>
<path d="M253.94 205.19C252.943 205.149 251.967 204.89 251.08 204.434C249.565 203.847 248.39 203.234 248.468 203.052C249.47 203.09 250.45 203.349 251.341 203.808C252.83 204.395 254.005 205.007 253.94 205.19Z" fill="#FAFAFA"/>
<path d="M265.171 197.693C264.988 197.693 265.014 196.519 265.445 195.176C265.876 193.833 266.477 192.868 266.647 192.947C266.816 193.025 266.49 194.081 266.085 195.372C265.68 196.663 265.301 197.719 265.171 197.693Z" fill="#FAFAFA"/>
<path d="M276.924 168.017C276.924 168.199 275.945 168.395 274.717 168.46C273.49 168.525 272.497 168.46 272.484 168.225C272.471 167.991 273.463 167.834 274.691 167.782C275.919 167.73 276.924 167.821 276.924 168.017Z" fill="#FAFAFA"/>
<path d="M279.314 193.481C279.197 193.612 278.139 192.829 277.434 191.395C276.906 190.576 276.719 189.585 276.911 188.631C277.107 188.631 277.381 189.791 278.034 191.095C278.687 192.399 279.458 193.338 279.314 193.481Z" fill="#FAFAFA"/>
<path d="M302.507 188.018C302.638 188.148 301.815 189.191 300.575 190.261C299.334 191.33 298.172 191.982 298.067 191.825C297.963 191.669 298.916 190.782 300.131 189.739C301.345 188.696 302.377 187.888 302.507 188.018Z" fill="#FAFAFA"/>
<path d="M291.041 184.419C291.146 184.576 290.428 185.293 289.422 186.036C288.416 186.779 287.502 187.275 287.398 187.118C287.293 186.962 288.012 186.245 289.017 185.502C290.023 184.758 290.924 184.276 291.041 184.419Z" fill="#FAFAFA"/>
<path d="M296.67 175.058C295.609 174.836 294.639 174.299 293.888 173.519C292.582 172.359 291.786 171.107 291.942 171.003C292.099 170.898 293.039 171.902 294.332 172.997C295.625 174.093 296.761 174.888 296.67 175.058Z" fill="#FAFAFA"/>
<path d="M309.873 171.407C309.977 171.55 309.246 172.306 308.214 173.076C307.183 173.845 306.255 174.38 306.138 174.223C306.02 174.067 306.765 173.323 307.796 172.541C308.828 171.759 309.755 171.25 309.873 171.407Z" fill="#FAFAFA"/>
<path d="M320.895 176.622C320.878 175.68 321.019 174.741 321.313 173.845C321.613 172.346 321.809 171.107 322.005 171.12C322.294 172.05 322.294 173.046 322.005 173.975C321.678 175.54 321.065 176.687 320.895 176.622Z" fill="#FAFAFA"/>
<path d="M322.841 189.178C322.71 189.309 321.535 188.435 320.229 187.21C318.923 185.984 317.917 184.889 318.048 184.758C318.178 184.628 319.354 185.489 320.66 186.714C321.966 187.94 322.971 189.035 322.841 189.178Z" fill="#FAFAFA"/>
<path d="M331.773 183.898C331.603 183.82 331.943 182.594 332.531 181.29C333.118 179.986 333.745 178.839 333.915 178.917C333.868 179.833 333.608 180.726 333.157 181.525C332.557 182.907 331.93 183.976 331.773 183.898Z" fill="#FAFAFA"/>
<path d="M332.23 198.983C332.453 197.892 332.898 196.858 333.536 195.945C333.976 194.932 334.61 194.015 335.404 193.246C335.182 194.334 334.737 195.364 334.098 196.271C333.66 197.289 333.026 198.211 332.23 198.983Z" fill="#FAFAFA"/>
<path d="M323.428 201.291C323.272 201.409 322.384 200.47 321.417 199.192C320.451 197.914 319.811 196.806 319.955 196.689C320.098 196.571 321.012 197.51 321.966 198.788C322.919 200.066 323.572 201.174 323.428 201.291Z" fill="#FAFAFA"/>
<path d="M306.817 207.745C307.132 206.378 307.742 205.097 308.606 203.99C309.288 202.768 310.234 201.713 311.375 200.9C310.764 202.128 310.029 203.291 309.181 204.368C308.509 205.571 307.717 206.703 306.817 207.745Z" fill="#FAFAFA"/>
<path d="M294.881 206.546C294.082 205.667 293.457 204.645 293.039 203.534C292.423 202.517 292.002 201.394 291.799 200.222C293.219 202.115 294.265 204.262 294.881 206.546Z" fill="#FAFAFA"/>
<path d="M279.849 203.052C279.1 204.141 278.173 205.098 277.107 205.881C276.19 206.834 275.117 207.623 273.934 208.215C273.803 208.071 275.031 206.807 276.663 205.372C277.583 204.421 278.661 203.636 279.849 203.052Z" fill="#FAFAFA"/>
<path d="M285.556 219.35C285.4 219.467 284.329 218.255 282.944 216.846C281.56 215.438 280.333 214.343 280.45 214.239C281.607 214.691 282.637 215.416 283.454 216.351C284.39 217.163 285.113 218.193 285.556 219.35Z" fill="#FAFAFA"/>
<path d="M296.082 219.845C296.157 218.651 296.559 217.501 297.244 216.52C298.224 214.825 299.412 213.73 299.543 213.913C299.074 214.957 298.496 215.949 297.819 216.872C297.344 217.92 296.762 218.917 296.082 219.845Z" fill="#FAFAFA"/>
<path d="M310.878 221.566C309.682 221.003 308.592 220.24 307.653 219.311C306.569 218.547 305.62 217.609 304.845 216.533C306.045 217.096 307.141 217.859 308.084 218.789C309.164 219.553 310.108 220.492 310.878 221.566Z" fill="#FAFAFA"/>
<path d="M309.572 182.737C308.549 182.573 307.593 182.121 306.817 181.434C305.433 180.43 304.584 179.321 304.714 179.191C304.845 179.06 305.89 179.921 307.222 180.886C308.554 181.851 309.572 182.568 309.572 182.737Z" fill="#FAFAFA"/>
<path d="M288.194 249.56C288.273 249.743 287.215 250.303 286.04 251.177C284.864 252.051 283.989 252.872 283.846 252.755C283.702 252.637 284.368 251.555 285.635 250.629C286.902 249.704 288.142 249.391 288.194 249.56Z" fill="#FAFAFA"/>
<path d="M303.996 256.001C302.857 254.24 302.122 252.25 301.841 250.173C302.974 251.937 303.71 253.926 303.996 256.001Z" fill="#FAFAFA"/>
<path d="M319.928 250.369C320.072 250.499 319.249 251.568 318.113 252.755C316.977 253.941 315.945 254.802 315.815 254.671C315.684 254.541 316.494 253.472 317.63 252.285C318.766 251.099 319.798 250.251 319.928 250.369Z" fill="#FAFAFA"/>
<path d="M331.773 258.948C331.63 259.091 330.572 258.257 329.005 257.957C327.437 257.657 326.145 257.957 326.079 257.788C326.517 257.472 327.022 257.262 327.555 257.176C328.088 257.09 328.633 257.13 329.148 257.292C330.872 257.644 331.865 258.844 331.773 258.948Z" fill="#FAFAFA"/>
<path d="M338.211 264.75C338.211 264.75 248.024 245.883 239.287 250.017C230.551 254.15 190.289 353.517 190.289 353.517L222.715 367.442L257.596 283.004C257.596 283.004 320.738 306.03 331.773 303.71C342.808 301.389 338.211 264.75 338.211 264.75Z" fill="white"/>
<path d="M297.897 270.044C296.526 270.5 244.354 291.923 240.672 298.794C236.989 305.665 246.026 419.975 246.026 419.975H275.697L273.868 318.391L331.773 303.71L297.897 270.044Z" fill="white"/>
<path d="M332.074 303.983C331.788 303.972 331.504 303.938 331.225 303.879L328.796 303.449C326.693 303.058 323.65 302.458 319.902 301.662C312.419 300.085 302.102 297.751 290.871 294.478C285.256 292.861 279.954 291.166 275.2 289.523C270.447 287.881 266.15 286.238 262.637 284.738C260.861 284.021 259.281 283.304 257.897 282.678C256.513 282.052 255.285 281.518 254.358 281.022L252.164 279.914C251.897 279.798 251.643 279.654 251.406 279.484C251.684 279.566 251.955 279.671 252.216 279.797L254.475 280.788C255.442 281.231 256.643 281.752 258.04 282.339C259.438 282.926 261.031 283.643 262.807 284.295C266.346 285.742 270.643 287.268 275.409 288.937C280.176 290.606 285.491 292.209 291.08 293.826C302.298 297.047 312.576 299.498 320.033 301.193L328.874 303.188L331.277 303.736C331.55 303.791 331.817 303.874 332.074 303.983Z" fill="#263238"/>
<path d="M240.685 325.054C240.539 324.494 240.447 323.922 240.41 323.346C240.28 322.107 240.11 320.529 239.914 318.652C239.718 316.774 239.509 314.284 239.274 311.702C238.875 308.843 238.875 305.943 239.274 303.084C239.853 300.194 241.373 297.576 243.597 295.639C245.366 294.064 247.371 292.775 249.539 291.818C250.975 291.165 252.444 290.586 253.94 290.084C254.48 289.868 255.04 289.707 255.611 289.602C255.611 289.719 253.313 290.54 249.748 292.209C247.658 293.191 245.729 294.484 244.028 296.043C241.933 297.915 240.5 300.411 239.94 303.162C239.575 305.962 239.575 308.798 239.94 311.598C240.136 314.206 240.306 316.539 240.45 318.56C240.593 320.581 240.659 322.029 240.724 323.267C240.777 323.862 240.764 324.462 240.685 325.054Z" fill="#263238"/>
<path d="M266.712 315.236C269.218 315.845 271.596 316.891 273.738 318.326C271.234 317.711 268.856 316.665 266.712 315.236Z" fill="#263238"/>
<path d="M269.337 312.106C270.182 313.177 270.971 314.291 271.701 315.444C273.006 317.231 274.404 318.469 274.312 318.626C273.034 318.007 271.954 317.045 271.191 315.848C270.231 314.802 269.588 313.504 269.337 312.106Z" fill="#263238"/>
<path d="M280.724 316.748C280.724 316.748 280.633 316.996 280.267 317.218C279.737 317.498 279.143 317.637 278.543 317.622C277.72 317.593 276.896 317.615 276.075 317.687C275.635 317.752 275.237 317.983 274.962 318.332C274.688 318.681 274.558 319.122 274.6 319.564C274.7 322.208 274.578 324.856 274.234 327.479C273.899 324.842 273.794 322.181 273.921 319.525C273.927 318.92 274.123 318.332 274.482 317.843C274.867 317.411 275.396 317.133 275.971 317.061C276.842 317.014 277.716 317.04 278.583 317.139C279.318 317.193 280.056 317.059 280.724 316.748Z" fill="#263238"/>
<path opacity="0.3" d="M273.607 249.43L335.077 254.358L332.452 247.487L274.208 246.653L273.607 249.43Z" fill="black"/>
<path d="M439.982 235.961H77.6005V245.609H96.9804L86.9901 429.115L92.5011 429.415L102.518 245.609H420.224L428.738 429.271H434.275L425.748 245.609H439.982V235.961Z" fill="#263238"/>
<path d="M183.289 178.904L203.387 237.526H294.384L293.705 234.514L256.917 233.366L239.966 178.865L183.289 178.904Z" fill="#263238"/>
<path d="M223.616 206.429C224.217 208.841 223.185 211.188 221.318 211.644C219.45 212.1 217.4 210.601 216.838 208.189C216.277 205.777 217.269 203.443 219.137 202.973C221.004 202.504 223.015 204.029 223.616 206.429Z" fill="white"/>
</g>
<defs>
<clipPath id="clip0_2201_207">
<rect width="440" height="429" fill="white"/>
</clipPath>
</defs>
</svg>
