<svg id="eSmylspuPe21" xmlns="http://www.w3.org/2000/svg" xmlns:xlink="http://www.w3.org/1999/xlink" viewBox="0 0 500 500" shape-rendering="geometricPrecision" text-rendering="geometricPrecision"><g transform="translate(0-.19281)"><path d="M68,317.25c-5.29.85-7.66,7.35-7.2,12.69s2.66,10.56,2.07,15.89c-.74,6.76-5.86,12.48-6.45,19.26-.7,8,5,15.09,6.64,22.94.82,3.82.71,7.85,2.13,11.49c2.497212,6.384829,9.157004,10.116382,15.906276,8.912458s11.708116-7.007991,11.843724-13.862458c.11-6.14-3.67-11.93-3.21-18.05.34-4.53,3-8.82,2.42-13.32-.68-5.36-5.64-9.16-7.39-14.27s-.07-10.74-.68-16.11C83,323.19,77.63,316.47,68,317.25" fill="#00b4db"/><path d="M40.94,363.88C40,372.8,44,383.3,48.58,391c4.654056,7.758941,11.659674,13.832812,20,17.34.93.39,2.09.71,2.88.08.561933-.622488.828001-1.457139.73-2.29.124242-19.457073-12.593743-36.666873-31.23-42.26" fill="#00a2c5"/><g><g opacity="0.1"><path d="M40.94,363.88C40,372.8,44,383.3,48.58,391c4.654056,7.758941,11.659674,13.832812,20,17.34.93.39,2.09.71,2.88.08.561933-.622488.828001-1.457139.73-2.29.124242-19.457073-12.593743-36.666873-31.23-42.26" fill="#bac4c6"/></g></g><path d="M79.82,427c-.107178-.151596-.194552-.316262-.26-.49-.16-.39-.38-.87-.63-1.46-.54-1.28-1.34-3.11-2.36-5.37-2-4.5-5.06-10.63-8.86-17.15-3.26112-5.553929-6.798903-10.940703-10.6-16.14-1.46-2-2.67-3.59-3.51-4.68l-1-1.28c-.22-.29-.33-.45-.31-.46.140942.122208.271399.256009.39.4l1,1.21c.9,1.06,2.15,2.63,3.65,4.6c3.896815,5.150603,7.486384,10.526609,10.75,16.1c3.254181,5.575913,6.175942,11.339297,8.75,17.26c1,2.27,1.73,4.13,2.21,5.43l.55,1.5c.093539.168856.170563.346345.23.53Z" fill="#263238"/><path d="M74.07,341.93c.055921.283587.089358.571148.1.86q.06.91.18,2.46c.14,2.18.34,5.26.58,9c.48,7.64,1.16,18.18,2,29.83s1.63,22.18,2.22,29.81c.29,3.78.52,6.85.69,9c.07,1,.12,1.85.17,2.45.024405.286147.024405.573853,0,.86-.066155-.27937-.10963-.563628-.13-.85-.06-.6-.15-1.42-.26-2.45-.2-2.18-.49-5.25-.85-9-.68-7.62-1.55-18.16-2.37-29.81s-1.4-22.09-1.83-29.78c-.17-3.79-.32-6.87-.42-9.05c0-1-.06-1.86-.08-2.46-.019765-.289663-.019765-.580337,0-.87Z" fill="#263238"/><path d="M65.86,414.28h22.35v16.41c0,2.843121-1.129425,5.569795-3.139815,7.580185s-4.737064,3.139815-7.580185,3.139815v0c-5.702846.003023-10.411739-4.455491-10.72-10.15l-.91-16.98Z" fill="#fff"/></g><g><path d="M356.92,279.29c-1.24396-.919527-2.777722-1.359773-4.32-1.24c0-.84,0-1.35,0-1.35h-23.6c0,0-.74,15.57,11.18,16.12c5.34.25,8.39-2.14,10.14-5.15.878458.208342,1.777241.319013,2.68.33c1.317414.058162,2.618464-.31006,3.71-1.05c1.220302-.955376,1.88715-2.453908,1.78-4c.06673-1.396409-.512184-2.745979-1.57-3.66Zm-1.62,5.79c-1,.75-2.81.64-4,.43.593804-1.655921.980082-3.379056,1.15-5.13c1.033625-.11956,2.076633.124398,2.95.69.518647.481042.784637,1.175572.72,1.88.094268.801734-.212449,1.59845-.82,2.13Z" fill="#00b4db"/><path d="M345.67,275.28c.117876-.175417.186908-.379063.2-.59-.073185-.611436-.448981-1.145067-1-1.42-.397901-.192976-.817587-.337348-1.25-.43-.545258-.118851-1.059613-.350481-1.51-.68-.504068-.439853-.786262-1.081202-.77-1.75.001528-.728136.205828-1.441456.59-2.06.81-1.31,2.27-2.14,3.3-3.44c1.050051-1.441867,1.364598-3.292143.85-5-.248494-.915296-.726995-1.751811-1.39-2.43-.751338-.661597-1.601636-1.201468-2.52-1.6-1.025559-.421931-1.939444-1.075684-2.67-1.91-.348847-.467521-.588083-1.007511-.7-1.58-.133563-.601986-.052191-1.231735.23-1.78.156945-.28241.379973-.522594.65-.7l.27.45c-1.754313,1.091749-2.656357,3.150158-2.27,5.18.162679.941072.625789,1.80414,1.32,2.46.780709.597838,1.471145,1.305114,2.05,2.1.244884.446353.362493.951382.34,1.46-.015106.503967-.148714.99729-.39,1.44-.441082.784166-1.065556,1.449813-1.82,1.94-1.45.92-2.94,1.38-4.05,2.22-1.015374.724386-1.662275,1.857376-1.77,3.1-.094076.935793.068401,1.879542.47,2.73.366644.716799.889493,1.342168,1.53,1.83l-.15-.07c-.136181-.077016-.266531-.163916-.39-.26-.489013-.378169-.888518-.859624-1.17-1.41-.45186-.878325-.649284-1.865446-.57-2.85.043255-.620029.209843-1.225186.49-1.78.325248-.61866.782749-1.158102,1.34-1.58c1.15-.9,2.68-1.4,4-2.28.685763-.462767,1.25415-1.07909,1.66-1.8.424636-.743651.424636-1.656349,0-2.4-.573506-.753737-1.246263-1.426494-2-2-.775022-.730428-1.285123-1.697859-1.45-2.75-.424376-2.24441.577437-4.518367,2.52-5.72l.26.45c-.19636.131689-.360442.306026-.48.51-.373205.947213-.204879,2.022202.44,2.81.684811.764563,1.532237,1.365962,2.48,1.76.965241.421855,1.856564.995813,2.64,1.7.719562.739647,1.2362,1.652374,1.5,2.65.525219,1.85109.155297,3.841273-1,5.38-1.13,1.37-2.57,2.17-3.32,3.36s-.82,2.69.05,3.4s2,.69,2.68,1.15c.593306.318451.97374.927145,1,1.6-.009477.169922-.068583.333333-.17.47c0,.09-.04.12-.05.12Z" fill="#263238"/></g><g id="eSmylspuPe214"><rect width="121.53" height="34.07" rx="3.23" ry="3.23" transform="translate(80.26 151.82)" fill="#fff"/><path d="M105.88,174.54c-2.55945,3.184558-7.215452,3.692319-10.40116,1.1343s-3.695562-7.213791-1.138976-10.400649s7.212129-3.698804,10.400136-1.143651c1.532771,1.228499,2.514202,3.016016,2.728038,4.968673s-.357473,3.910214-1.588038,5.441327Z" fill="#00b4db"/><path d="M104.27,167.39c-1.206675,1.536902-2.545078,2.965648-4,4.27-.34.32-.67.63-1,.94l-.18.18-.18-.18c-1.109409-1.013635-2.114432-2.13591-3-3.35c1.21409.885568,2.336365,1.890591,3.35,3h-.36l1-1c1.340682-1.412298,2.802983-2.703942,4.37-3.86Z" fill="#fff"/><path d="M189.94,166.36c0,.14-15.45.26-34.51.26s-34.5-.12-34.5-.26s15.44-.26,34.5-.26s34.51.11,34.51.26Z" fill="#737373"/><path d="M161.63,173.1c0,.14-8.93.26-19.94.26s-20-.12-20-.26s8.93-.26,20-.26s19.94.16,19.94.26Z" fill="#737373"/><rect width="121.53" height="34.07" rx="3.23" ry="3.23" transform="translate(80.26 190.79)" fill="#fff"/><path d="M105.88,213.51c-2.55945,3.184558-7.215452,3.692319-10.40116,1.1343s-3.695562-7.213791-1.138976-10.400649s7.212129-3.698804,10.400136-1.143651c3.186821,2.561279,3.696967,7.219719,1.14,10.41Z" transform="translate(0 0.523569)" fill="#00b4db"/><path d="M104.27,206.37c-1.205451,1.534877-2.543974,2.960404-4,4.26l-1,1-.18.17-.18-.18c-1.109409-1.013635-2.114432-2.13591-3-3.35c1.21198.888172,2.334008,1.892974,3.35,3h-.36l1-1c1.335702-1.429506,2.798366-2.734859,4.37-3.9Z" fill="#fff"/><path d="M189.94,205.33c0,.15-15.45.26-34.51.26s-34.5-.11-34.5-.26s15.44-.26,34.5-.26s34.51.12,34.51.26Z" fill="#737373"/><path d="M161.63,212.07c0,.15-8.93.26-19.94.26s-20-.11-20-.26s8.93-.26,20-.26s19.94.12,19.94.26Z" fill="#737373"/><rect width="121.53" height="34.07" rx="3.23" ry="3.23" transform="translate(80.26 229.77)" fill="#fff"/><path d="M105.88,252.49c-2.55945,3.184558-7.215452,3.692319-10.40116,1.1343s-3.695562-7.213791-1.138976-10.400649s7.212129-3.698804,10.400136-1.143651c1.532771,1.228499,2.514202,3.016016,2.728038,4.968673s-.357473,3.910214-1.588038,5.441327Z" transform="translate(.256593 0)" fill="#00b4db"/><path d="M104.27,245.34c-1.200694,1.542024-2.539577,2.971282-4,4.27l-1,.94-.18.18-.18-.18c-1.109409-1.013635-2.114432-2.13591-3-3.35c1.21409.885568,2.336365,1.890591,3.35,3h-.36l1-1c0,0,2.802983-2.703942,4.37-3.86Z" fill="#fff"/><path d="M189.94,244.31c0,.14-15.45.26-34.51.26s-34.5-.12-34.5-.26s15.44-.26,34.5-.26s34.51.12,34.51.26Z" fill="#737373"/><path d="M161.63,251.05c0,.14-8.93.26-19.94.26s-20-.12-20-.26s8.93-.26,20-.26s19.94.12,19.94.26Z" fill="#737373"/></g><g><polygon points="270.67,358.78 268.76,441.41 265.12,441.41 265.35,358.99 270.67,358.78" fill="#263238"/><polygon points="283.84,357.86 301.56,441.41 305.62,441.41 290.87,357.86 283.84,357.86" fill="#263238"/><polygon points="250.62,358.78 231.01,441.41 226.95,441.41 244.74,358.44 250.62,358.78" fill="#263238"/><path d="M306.85,267.94c0,0,22.46-1.28,20.22,24.71s-3.53,52.35-11.88,61.35-92.43,9.31-99.49,1.93s13.48-7.06,17.33-7.06s27.6,2.24,35.3-18s5.78-64.21,38.52-62.93Z" fill="#263238"/><path d="M308.29,268c0,0,17.17,3.52,15.57,21.49s-6.1,49.43-14.45,57.45-41,9.77-58.73,8.67c-20.54-1.29-33.5-5.2-33.5-5.2s-3.75,2.41-2.62,4s11.15,7.8,59.7,6.76s45.18-8.2,47.19-16s6.25-49.54,5.66-58.71-5.21-16.9-18.82-18.46Z" fill="#455a64"/><path d="M260.05,191.73c5.555394-1.914989,11.704678.134772,15,5c2.17,3.36,2.68,7.58,4.89,10.91c1.57,2.35,3.89,4.08,5.81,6.16s3.49,4.83,3,7.62c-.46,2.61-2.67,4.93-2.23,7.55.42,2.45,3,4.05,3.55,6.49.59,2.87-2.17,5.55-5.07,6s-5.78-.67-8.51-1.75-5.63-2.16-8.52-1.64c-3.35.61-5.92,3.24-8.85,5-6.312237,3.606838-14.159999,3.139897-20-1.19-2.2-1.69-4.13-4.31-3.59-7c.5-2.54,3-4.3,3.66-6.79c1.06-3.7-2-7.48-1.55-11.31.62-5.14,7-7.49,9.28-12.13c1.11-2.23,1.21-4.83,2.18-7.12s3.53-4.33,5.81-3.35" fill="#263238"/><path d="M257.89,238.51c.33-1.83-.26-9.53-.26-9.53s-6.82-.86-7.12-7.83.4-23,.4-23l12.57-6l11,12.5.21,33.79-16.8.07Z" fill="#ffbe9d"/><path d="M251.8,210.44c.005604.476516.393525.859842.870074.859769s.864351-.383519.869809-.860036-.373461-.868745-.849883-.879733c-.487655-.000031-.884521.392376-.89.88Z" fill="#263238"/><path d="M251.24,208.88c.11.12.77-.43,1.7-.47s1.63.44,1.73.31-.06-.27-.37-.49c-.834073-.581163-1.954925-.527789-2.73.13-.29.24-.38.47-.33.52Z" fill="#263238"/><path d="M262,210.44c-.035667.331242.120962.653765.403345.83055s.640927.176786.92331,0s.439012-.499308.403345-.83055c.035667-.331242-.120962-.653765-.403345-.83055s-.640927-.176786-.92331,0-.439012.499308-.403345.83055Z" fill="#263238"/><path d="M261.6,209.06c.11.12.77-.43,1.7-.47s1.63.44,1.73.31-.06-.27-.37-.49c-.403599-.281247-.888557-.421815-1.38-.4-.494218.023614-.967646.205971-1.35.52-.28.25-.38.47-.33.53Z" fill="#263238"/><path d="M258.09,217.1c-.493544-.146806-1.005117-.224215-1.52-.23-.24,0-.47-.06-.51-.23-.022223-.265602.029704-.532161.15-.77.21-.62.44-1.28.67-2c.626932-1.681394,1.131578-3.405883,1.51-5.16-.756534,1.616052-1.388376,3.287592-1.89,5-.22.7-.44,1.36-.65,2-.13918.314124-.174222.664535-.1,1c.064729.179349.214847.314456.4.36.132702.018351.267298.018351.4,0c.509225.083951,1.027892.094055,1.54.03Z" fill="#263238"/><path d="M257.63,229c3.227648-.104941,6.354917-1.147363,9-3s-2.12,5.08-8.92,4.67l-.08-1.67Z" fill="#eb996e"/><path d="M258.43,219.56c.116045-.597879.520417-1.099599,1.08-1.34.384351-.175001.825649-.175001,1.21,0c.374221.185721.593551.584504.55,1-.115495.477721-.512795.835291-1,.9-.465312.061567-.938293.02754-1.39-.1-.127251-.01975-.24949-.063891-.36-.13-.111348-.070233-.1703-.199927-.15-.33" fill="#eb996e"/><path d="M260.75,217.07c.06,0,.17.25.14.7-.056072.602756-.329805,1.164443-.77,1.58-.436333.413232-1.009325.651682-1.61.67-.46,0-.72-.12-.7-.18s1.09-.06,1.95-.87.84-1.91.99-1.9Z" fill="#263238"/><path d="M250.34,197.36c.518527,4.176732,4.061225,7.316754,8.27,7.33l-1.89-4.16c1.68,1.95,3.42,4,5.73,5.12s5.32,1.3,7.28-.38c.64,1.71.63,3.6,1.22,5.32s2,8.84,3.76,8.56s2.83-7.41,3.25-9c1.023812-4.584712-.18973-9.383212-3.27-12.93-3.629172-4.232297-9.035987-6.513529-14.6-6.16-2.446765.107912-4.806432.939712-6.78,2.39-1.685581,1.344722-2.860596,3.225452-3.33,5.33" fill="#263238"/><path d="M241,228.76c-.16484-.010854-.326884-.047989-.48-.11-.4444-.134678-.873421-.315672-1.28-.54-1.528015-.815241-2.791008-2.050476-3.64-3.56-1.332528-2.257637-1.567957-4.998174-.64-7.45.541792-1.431034,1.415785-2.712891,2.55-3.74c1.216295-1.10602,2.708935-1.862705,4.32-2.19.747823-.105711,1.445572-.437142,2-.95.466819-.565492.737076-1.267458.77-2c.12-1.47-.46-2.9-.62-4.34-.174495-1.386028.110023-2.791052.81-4c.614956-1.047136,1.51261-1.899735,2.59-2.46c1-.51,1.89-.84,2.66-1.18.674498-.262439,1.318315-.597761,1.92-1c.492391-.365639.933054-.79621,1.31-1.28-.055475.153699-.132948.29854-.23.43-.272738.388871-.611129.727262-1,1-.595699.441821-1.239865.81423-1.92,1.11-.77.36-1.68.72-2.6,1.23-1.002791.546202-1.831175,1.364188-2.39,2.36-.647569,1.132527-.900814,2.447999-.72,3.74.16,1.37.77,2.8.66,4.44-.033407.851952-.350132,1.668399-.9,2.32-.625899.59264-1.417913.979924-2.27,1.11-2.990919.630182-5.457561,2.735302-6.55,5.59-.894977,2.324647-.708038,4.927133.51,7.1.798646,1.475586,1.980034,2.708789,3.42,3.57c1.06.58,1.72.75,1.72.8Z" fill="#263238"/><path d="M286.27,237.92c0,0,.59-.4,1.62-1.14c1.491416-.987518,2.67622-2.373254,3.42-4c.454908-1.129216.525197-2.376834.2-3.55-.18053-.634983-.525485-1.211057-1-1.67-.540366-.473448-1.138446-.876648-1.78-1.2-1.502242-.806963-2.467637-2.346274-2.54-4.05-.07-1.81,1.05-3.31,1.45-4.92.340959-1.618481.073972-3.305844-.75-4.74-.761615-1.365791-1.780344-2.571286-3-3.55-2.29-1.92-4.68-3.33-6.33-5-1.359739-1.242591-2.372906-2.81748-2.94-4.57-.136674-.479049-.217214-.972357-.24-1.47-.025747-.172377-.025747-.347623,0-.52.082975.652751.216713,1.298039.4,1.93.625551,1.681138,1.655962,3.182103,3,4.37c1.64,1.57,4,2.92,6.38,4.87c1.26309,1.011892,2.31906,2.258003,3.11,3.67.895641,1.543488,1.184404,3.365193.81,5.11-.46,1.75-1.53,3.19-1.45,4.78.050439,1.582571.958734,3.012083,2.37,3.73.674124.347264,1.302306.777249,1.87,1.28.515752.523311.887744,1.170852,1.08,1.88.328354,1.261286.237086,2.595191-.26,3.8-.421194.971453-1.03723,1.846155-1.81,2.57-.580996.54576-1.210233,1.03777-1.88,1.47-.54.35-1,.6-1.27.75-.145253.076508-.299902.133661-.46.17Z" fill="#263238"/><path d="M250.11,205.7c.966573-.803258,1.647163-1.897816,1.94-3.12.285012-1.216526.435912-2.460612.45-3.71c0-.36,0-.83-.38-.92s-.62.25-.78.56c-1.222639,2.315103-1.654595,4.96654-1.23,7.55l.22-.21" fill="#263238"/><path d="M232.66,436.46l-.19-9l16.84-.46.41,13.15-1,.1c-4.64.38-23.62,1.62-26.75.76-3.53-.95,10.69-4.55,10.69-4.55Z" fill="#00a2c5"/><g><g opacity="0.5"><path d="M243.61,440.2c.210475-1.429959.944622-2.730754,2.06-3.65c1.084729-.921108,2.478499-1.396419,3.9-1.33l.13,4.7-6.09.28Z" fill="#fff"/></g></g><g><g opacity="0.4"><path d="M225.72,438.47c0,0-5,1.58-4.33,2.39s19.87.28,28.33-.7v-.37l-22.43.81c0,0-.59-2.12-1.57-2.13Z" fill="#fff"/></g></g><path d="M250,439.77h-.29l-.83.07-3.06.22c-2.58.16-6.15.34-10.1.46s-7.52.13-10.11.11h-3.06-.83-.29.29.83h3.06c2.59,0,6.16-.07,10.11-.18s7.51-.27,10.1-.39l3.06-.16h.83l.29-.13Z" fill="#263238"/><path d="M227.28,440.86c-.153848-.50425-.361721-.990404-.62-1.45-.308502-.422496-.667875-.805379-1.07-1.14c1.049002.425608,1.722925,1.458425,1.69,2.59Z" fill="#263238"/><path d="M232.18,438.2c-.05,0-.3-.25-.55-.63s-.43-.71-.38-.75.29.26.55.64c.177132.217307.306599.469426.38.74Z" fill="#263238"/><path d="M233.52,437.44c0,.05-.31-.12-.6-.38s-.51-.49-.48-.53.31.12.61.38.51.49.47.53Z" fill="#263238"/><path d="M234.34,435.83c-.278397.11467-.579762.162614-.88.14-.295078.035004-.594167.011213-.88-.07.572666-.163504,1.176158-.187506,1.76-.07Z" fill="#263238"/><path d="M234.6,434.7c-.290512.209813-.64175.318697-1,.31-.336043.062845-.683055.028144-1-.1.329509-.064289.664286-.097767,1-.1.330078-.061864.664367-.098636,1-.11Z" fill="#263238"/><path d="M231.56,436.75c-.357557.059309-.722443.059309-1.08,0-.392432-.038742-.780633-.112367-1.16-.22-.228099-.060143-.449297-.14393-.66-.25-.129942-.072797-.229335-.189938-.28-.33-.040421-.163383.018197-.335329.15-.44.835726-.440536,1.865732-.236203,2.47.49.171358.208366.297375.450181.37.71.022334.098753.022334.201247,0,.3-.120604-.330567-.296434-.638269-.52-.91-.249759-.281233-.57662-.482913-.94-.58-.429095-.130747-.892384-.08765-1.29.12-.16.14-.09.34.1.45.198116.100543.405824.180946.62.24.365971.115779.74045.202712,1.12.26.69.14,1.1.12,1.1.16Z" fill="#263238"/><path d="M231.29,436.81c-.147408-.220246-.201359-.49-.15-.75.02713-.283914.119537-.557711.27-.8.17855-.330738.514901-.546154.89-.57.230647.040753.386254.258604.35.49-.026105.172385-.083732.338488-.17.49-.138646.239887-.306603.46159-.5.66-.158066.20142-.36445.359647-.6.46s.21-.2.5-.55c.161435-.207661.305267-.428427.43-.66.14-.24.23-.65,0-.69s-.54.26-.7.48c-.143677.214625-.242332.45616-.29.71-.038463.241328-.048532.48633-.03.73Z" fill="#263238"/><path d="M249.48,435.17c0,0-.48,0-1.24.08-2.024649.271537-3.708984,1.690745-4.32,3.64-.23.73-.25,1.21-.28,1.21s0-.12,0-.34c.018003-.308495.071695-.613865.16-.91.273284-.997943.841386-1.890177,1.63-2.56.795675-.662281,1.770306-1.073018,2.8-1.18.308972-.035711.621028-.035711.93,0c.109103.00356.217018.023794.32.06Z" fill="#263238"/><path d="M247.54,428.21c.153336,1.147072.233498,2.302743.24,3.46.071149,1.152236.071149,2.307764,0,3.46-.147673-1.14429-.227812-2.296285-.24-3.45-.065018-1.155753-.065018-2.314247,0-3.47Z" fill="#263238"/><path d="M241.45,438.61c-.797957.218374-1.6228.322742-2.45.31-.825069.066319-1.655245.025986-2.47-.12c0-.06,1.11,0,2.46-.08s2.45-.17,2.46-.11Z" fill="#263238"/><path d="M244.75,438.52c0,0-.08.23-.19.49s-.16.48-.22.48-.09-.27,0-.56.37-.45.41-.41Z" fill="#263238"/><path d="M246,436.94c0,0-.06.21-.23.39s-.34.3-.38.26.06-.21.23-.4.29-.29.38-.25Z" fill="#263238"/><path d="M247.71,436.18c0,.06-.23.06-.48.15s-.42.24-.46.2.09-.28.39-.39.57-.01.55.04Z" fill="#263238"/><path d="M249,435.81c0,.05-.07.14-.21.2s-.27.06-.29,0s.07-.14.21-.2.29-.05.29,0Z" fill="#263238"/><path d="M192,388.35l3.9-8.1l15.23,7.22-5.59,11.91-1-.39c-4.31-1.75-21.8-9.24-24.2-11.42-2.66-2.43,11.66.78,11.66.78Z" fill="#00a2c5"/><g><g opacity="0.5"><path d="M200.07,396.64c.835142-1.175061,2.07412-2.001047,3.48-2.32c1.384653-.324242,2.840562-.117274,4.08.58l-2,4.26-5.56-2.52Z" fill="#fff"/></g></g><g><g opacity="0.4"><path d="M184.89,387c0,0-5.15-.84-4.94.17s17.59,9.24,25.58,12.2l.14-.35-20.36-9.43c0,0,.45-2.13-.42-2.59Z" fill="#fff"/></g></g><path d="M205.91,399.13c-.094085-.01597-.185151-.046325-.27-.09l-.78-.31-2.86-1.19c-2.38-1-5.64-2.48-9.22-4.17s-6.77-3.28-9.06-4.47L181,387.48l-.73-.4-.25-.16.27.12.75.36l2.74,1.37c2.32,1.15,5.52,2.73,9.09,4.42s6.82,3.16,9.19,4.21l2.79,1.25.76.35.3.13Z" fill="#263238"/><path d="M185.2,389.84c.095326-.514195.132226-1.037516.11-1.56-.09405-.517196-.241506-1.023238-.44-1.51.384112.404507.611084.932926.64,1.49.098028.546903-.012587,1.110683-.31,1.58Z" fill="#263238"/><path d="M190.77,389.69c-.06,0-.15-.36-.2-.81s-.06-.83,0-.84c.122869.252938.191018.528942.2.81.06.46.06.83,0,.84Z" fill="#263238"/><path d="M192.31,389.62c-.05,0-.21-.25-.37-.61s-.23-.67-.17-.69.21.25.36.61.23.67.18.69Z" fill="#263238"/><path d="M193.77,388.55c-.296608-.026345-.583591-.118589-.84-.27-.284615-.09442-.544355-.251631-.76-.46.296608.026345.583591.118589.84.27.45.21.79.41.76.46Z" fill="#263238"/><path d="M194.52,387.67c-.695271.024058-1.370391-.235881-1.87-.72.622471.242235,1.245808.482236,1.87.72Z" fill="#263238"/><path d="M190.88,388.12c-.358568-.096125-.697176-.255271-1-.47-.334365-.211218-.648976-.452197-.94-.72-.174672-.162802-.335246-.340102-.48-.53-.082645-.123323-.114856-.273641-.09-.42.031608-.165532.163574-.293499.33-.32.603354-.011012,1.179424.250989,1.567653.712981s.547104,1.074576.432347,1.667019c0,.18-.09.28-.1.27.041438-.333711.024519-.672087-.05-1-.101263-.361566-.302262-.687323-.58-.94-.319105-.313853-.752623-.483648-1.2-.47-.21,0-.24.25-.11.43.126941.180091.27094.347531.43.5.277294.269077.574835.516471.89.74.54.34.92.52.9.55Z" fill="#263238"/><path d="M190.61,388.05c-.02798-.262979.043355-.52692.2-.74.15678-.239704.365204-.441295.61-.59.307707-.21503.70441-.256589,1.05-.11.185137.144037.224729.407983.09.6-.097105.141596-.223232.260905-.37.35-.232831.158032-.484864.285729-.75.38-.233489.099319-.48664.143792-.74.13s.27-.08.69-.27c.242933-.105658.474184-.236365.69-.39.23-.14.5-.47.27-.63-.282467-.089607-.59013-.049318-.84.11-.222611.129335-.419277.298874-.58.5-.131767.206921-.239147.428394-.32.66Z" fill="#263238"/><path d="M207.57,394.82c0,0-.41-.25-1.14-.49-1.92562-.665155-4.06212-.163136-5.49,1.29-.55.54-.78,1-.81.95.032598-.110885.083279-.215626.15-.31.158031-.264502.342294-.512419.55-.74c1.428854-1.566056,3.672601-2.09423,5.65-1.33.287492.11044.562381.251237.82.42.19.12.28.2.27.21Z" fill="#263238"/><path d="M209,387.74c-.387086,1.088875-.837864,2.154046-1.35,3.19-.449705,1.062013-.960561,2.097081-1.53,3.1.387086-1.088875.837864-2.154046,1.35-3.19.444601-1.064344.955607-2.099715,1.53-3.1Z" fill="#263238"/><path d="M198.85,394.25c-.806433-.173561-1.586481-.45263-2.32-.83-.764871-.319314-1.487077-.732483-2.15-1.23c0-.05,1,.48,2.23,1.05s2.26.96,2.24,1.01Z" fill="#263238"/><path d="M201.84,395.66c0,.06-.18.17-.39.35s-.36.36-.41.33s0-.28.28-.48.51-.25.52-.2Z" fill="#263238"/><path d="M203.63,394.79c0,.06-.16.17-.39.25s-.44.12-.46.06.16-.16.39-.25.44-.11.46-.06Z" fill="#263238"/><path d="M205.54,394.92c0,0-.24-.06-.5-.08s-.48,0-.5,0s.2-.2.53-.16.51.2.47.24Z" fill="#263238"/><path d="M206.83,395.16c0,0-.13.09-.28.08s-.27-.07-.26-.12.13-.1.27-.09.27.07.27.13Z" fill="#263238"/><path d="M303,270.66l-3.58-18C296.82,238,276.22,237,276.22,237L260,236.73c0,0-12-1.61-19.39,6.73-7.65,8.63-17.06,18.84-17.06,18.84l7.18,18.07l17-14c-1.421544,2.493879-2.204761,5.300408-2.28,8.17c0,4.79,5,7,5,7L252,296.07l-5,23.53l52.81-2.12c-.891329-7.892206-3.561692-15.479318-7.81-22.19l1-24.63h10Z" fill="#00b4db"/><path d="M280.37,250.53c.141523.369971.235605.75638.28,1.15.17.85.37,1.9.62,3.15.54,2.78,1.24,6.4,2,10.4s1.44,7.76,1.86,10.44c.22,1.34.37,2.43.46,3.18.072066.388922.095579.785285.07,1.18-.132173-.372192-.222725-.757875-.27-1.15-.17-.85-.38-1.9-.62-3.15-.54-2.78-1.24-6.4-2-10.4s-1.44-7.75-1.86-10.44c-.22-1.34-.37-2.42-.46-3.18-.064951-.389799-.091744-.785001-.08-1.18Z" fill="#263238"/><path d="M303.31,269.72c-3.245419.278068-6.50363.378218-9.76.3-3.25511.096408-6.513044.019633-9.76-.23c3.24579-.271418,6.503821-.368224,9.76-.29c3.254946-.096421,6.512705-.022988,9.76.22Z" fill="#263238"/><path d="M305.32,286c-1-8.62-2.43-16-2.43-16h-18.7c0,0,2.32,11,1.81,13.5-.46,2.21-36.69,3.67-46.13,3.82-.57-.42-1.38.29-2.11-.35-.644405-.572256-1.188576-1.248245-1.61-2-.556966-.912146-.990734-1.894008-1.29-2.92-.072311-.392534-.371121-.704473-.760184-.793588s-.793858.061664-1.029816.383588c-.38.81.05,3.5,1.84,6.1s-2.91,1.25-4.63.79-7.12-1.63-7.67-1.2c-.82.63-.31,1.64,1.42,2.06s6.84,2,6.56,3-9-1.57-9-1.57-1.78-.83-2.14.22c-.64,1.9,8.83,3.82,9.74,4c.63.12.36,1.13-.31,1s-8.66-2.67-9.33-.74c-.52,1.48,7.78,1.66,9.15,3.12s-6.28-.79-6.72.64c-.16.54,3,.78,7.6,1.43c4.702468.448814,9.427582.61578,14.15.5c10.61.58,48.13,1.36,56.14.79c9.32-.71,5.81-12.78,5.45-15.78Z" fill="#ffbe9d"/><path d="M245.9,271.17c.145535-.823089.359614-1.632574.64-2.42.22-.75.49-1.63.83-2.6.17-.48.36-1,.57-1.51.12-.28.27-.52.34-.75.079275-.252023.113135-.516129.1-.78-.04902-.557959-.132513-1.112352-.25-1.66-.1-.54-.2-1.06-.3-1.57-.16-1-.32-1.86-.46-2.68-.185485-.817454-.286019-1.651883-.3-2.49.306529.780538.527813,1.591914.66,2.42.18.81.37,1.7.57,2.65l.33,1.58c.136352.571853.226641,1.153717.27,1.74.016647.322018-.027454.644293-.13.95-.104748.27002-.224947.53379-.36.79-.21.5-.41,1-.59,1.48-.33.91-.65,1.76-.93,2.54-.232834.808109-.565392,1.58408-.99,2.31Z" fill="#263238"/><path d="M267.7,203c1.44,1.86,3,4,2.69,6.33-.25,2-1.88,3.85-1.61,5.89.32,2.35,3,3.89,3.18,6.26.11,2-1.58,3.48-2.77,5-1.763697,2.269888-2.551661,5.148296-2.19,8c.399183,2.845269,2.084338,5.349033,4.57,6.79c2.529731,1.399671,5.608372,1.369302,8.11-.08c2.167992-1.512468,3.747024-3.727353,4.47-6.27c1.12-3.22,1.42-7-.49-9.84-.78-1.14-1.91-2.12-2.16-3.48-.32-1.72.9-3.34,1.09-5.08.26-2.33-1.35-4.46-3.13-6s-3.88-2.76-5.21-4.69" fill="#263238"/><g><g opacity="0.3"><path d="M281,255.4c.65,10,1,19.25,1.24,29.28c1.334957-.057761,2.63142-.46463,3.76-1.18.51-4.28-2.73-17.31-5-28.1Z"/></g></g><path d="M256.62,250.79c-.145339-.762949-.065421-1.551709.23-2.27.34-1.22.87-2.11,1-2.05-.043548.75275-.212541,1.492937-.5,2.19-.129474.744057-.375853,1.462944-.73,2.13Z" fill="#fafafa"/><path d="M246,250.76c-.08.12-.79-.23-1.48-.89s-1.09-1.35-1-1.43.67.43,1.33,1.05s1.22,1.15,1.15,1.27Z" fill="#fafafa"/><path d="M235.85,259.06c0,0-.09-.09-.15-.27h.23c.155917.815952.155917,1.654048,0,2.47-.059603.933407-.409209,1.824902-1,2.55.117694-.890818.294754-1.772781.53-2.64.18-1,.22-1.94.28-2.37h.23c-.06.2-.08.25-.12.26Z" fill="#fafafa"/><path d="M235.4,269.44c-.763511-.031646-1.510911-.229587-2.19-.58-1.16-.45-2.06-.92-2-1.06.766961.029875,1.517996.227875,2.2.58c1.14.45,2.04.92,1.99,1.06Z" fill="#fafafa"/><path d="M244,263.69c-.14,0-.12-.9.21-1.93s.79-1.77.92-1.71-.12.87-.43,1.86-.6,1.8-.7,1.78Z" fill="#fafafa"/><path d="M253,240.93c0,.14-.75.29-1.69.34s-1.7,0-1.71-.18.75-.3,1.69-.34s1.71.03,1.71.18Z" fill="#fafafa"/><path d="M254.83,260.46c-.09.1-.9-.5-1.44-1.6-.403971-.627753-.547453-1.388205-.4-2.12.15,0,.36.89.86,1.89s1.09,1.72.98,1.83Z" fill="#fafafa"/><path d="M272.59,256.27c.1.1-.53.9-1.48,1.72s-1.84,1.32-1.92,1.2.65-.8,1.58-1.6s1.72-1.42,1.82-1.32Z" fill="#fafafa"/><path d="M263.81,253.51c.08.12-.47.67-1.24,1.24s-1.47.95-1.55.83.47-.67,1.24-1.24s1.46-.94,1.55-.83Z" fill="#fafafa"/><path d="M268.12,246.33c-.812453-.170333-1.554723-.581543-2.13-1.18-1-.89-1.61-1.85-1.49-1.93s.84.69,1.83,1.53s1.86,1.45,1.79,1.58Z" fill="#fafafa"/><path d="M278.23,243.53c.08.11-.48.69-1.27,1.28s-1.5,1-1.59.88.48-.69,1.27-1.29s1.5-.99,1.59-.87Z" fill="#fafafa"/><path d="M286.67,247.53c-.012906-.72288.095255-1.442823.32-2.13.23-1.15.38-2.1.53-2.09.221617.71318.221617,1.47682,0,2.19-.25,1.2-.72,2.08-.85,2.03Z" fill="#fafafa"/><path d="M288.16,257.16c-.1.1-1-.57-2-1.51s-1.77-1.78-1.67-1.88s1,.56,2,1.5s1.77,1.78,1.67,1.89Z" fill="#fafafa"/><path d="M295,253.11c-.13-.06.13-1,.58-2s.93-1.88,1.06-1.82c-.036126.702539-.234658,1.387134-.58,2-.46,1.06-.94,1.88-1.06,1.82Z" fill="#fafafa"/><path d="M295.35,264.68c.170637-.836833.510972-1.629815,1-2.33.336626-.776923.822477-1.480218,1.43-2.07-.169748.834029-.510217,1.623917-1,2.32-.335026.780746-.820997,1.487613-1.43,2.08Z" fill="#fafafa"/><path d="M288.61,266.45c-.12.09-.8-.63-1.54-1.61s-1.23-1.83-1.12-1.92.81.63,1.54,1.61s1.23,1.83,1.12,1.92Z" fill="#fafafa"/><path d="M275.89,271.4c.240991-1.048485.708605-2.031498,1.37-2.88.522579-.937147,1.24666-1.746614,2.12-2.37-.46717.942005-1.030142,1.833377-1.68,2.66-.514119.922368-1.120562,1.790152-1.81,2.59Z" fill="#fafafa"/><path d="M266.75,270.48c-.611595-.674098-1.090021-1.457903-1.41-2.31-.472104-.780107-.794299-1.641554-.95-2.54c1.087822,1.451946,1.888794,3.09801,2.36,4.85Z" fill="#fafafa"/><path d="M255.24,267.8c-.573529.835839-1.28341,1.569382-2.1,2.17-.702186.730658-1.524,1.336027-2.43,1.79-.1-.11.84-1.08,2.09-2.18.70441-.72982,1.529955-1.332062,2.44-1.78Z" fill="#fafafa"/><path d="M259.61,280.3c-.12.09-.94-.84-2-1.92s-2-1.92-1.91-2c.885888.346995,1.674908.902739,2.3,1.62.717229.622975,1.270149,1.412861,1.61,2.3Z" fill="#fafafa"/><path d="M267.67,280.68c.057131-.915549.365031-1.797736.89-2.55.75-1.3,1.66-2.14,1.76-2-.35895.80098-.801398,1.561857-1.32,2.27-.363577.803803-.80928,1.567864-1.33,2.28Z" fill="#fafafa"/><path d="M279,282c-.915747-.431968-1.751068-1.017031-2.47-1.73-.830052-.585591-1.556678-1.305457-2.15-2.13.919097.431328,1.757812,1.016399,2.48,1.73.827087.585736,1.550397,1.305665,2.14,2.13Z" fill="#fafafa"/><path d="M278,252.22c-.784045-.126134-1.515937-.473003-2.11-1-1.06-.77-1.71-1.62-1.61-1.72s.9.56,1.92,1.3s1.8,1.29,1.8,1.42Z" fill="#fafafa"/><path d="M261.63,303.47c.06.14-.75.57-1.65,1.24s-1.57,1.3-1.68,1.21.4-.92,1.37-1.63s1.92-.95,1.96-.82Z" fill="#fafafa"/><path d="M273.73,308.41c-.872034-1.350527-1.435419-2.876789-1.65-4.47.86766,1.352709,1.430677,2.877972,1.65,4.47Z" fill="#fafafa"/><path d="M285.93,304.09c.11.1-.52.92-1.39,1.83s-1.66,1.57-1.76,1.47.52-.92,1.39-1.83s1.66-1.56,1.76-1.47Z" fill="#fafafa"/><path d="M295,310.67c-.11.11-.92-.53-2.12-.76s-2.19,0-2.24-.13c.67916-.491176,1.550651-.632098,2.35-.38c1.32.27,2.08,1.19,2.01,1.27Z" fill="#fafafa"/><path d="M299.93,315.12c0,0-69.06-14.47-75.75-11.3s-37.52,79.38-37.52,79.38l24.83,10.68l26.71-64.76c0,0,48.35,17.66,56.8,15.88s4.93-29.88,4.93-29.88Z" fill="#fff"/><path d="M269.06,319.18c-1.05.35-41,16.78-43.82,22.05s4.1,92.94,4.1,92.94h22.72l-1.4-77.91L295,345l-25.94-25.82Z" fill="#fff"/><path d="M295.23,345.21c-.218534-.008301-.435975-.035063-.65-.08l-1.86-.33c-1.61-.3-3.94-.76-6.81-1.37-5.73-1.21-13.63-3-22.23-5.51-4.3-1.24-8.36-2.54-12-3.8s-6.93-2.52-9.62-3.67c-1.36-.55-2.57-1.1-3.63-1.58s-2-.89-2.71-1.27l-1.68-.85c-.204506-.089086-.398937-.19971-.58-.33.212711.063412.420033.143666.62.24l1.73.76c.74.34,1.66.74,2.73,1.19s2.29,1,3.65,1.5c2.71,1.11,6,2.28,9.65,3.56s7.72,2.51,12,3.75c8.59,2.47,16.46,4.35,22.17,5.65l6.77,1.53l1.84.42c.209265.042428.413656.106091.61.19Z" fill="#263238"/><path d="M225.25,361.37c-.111795-.428933-.182118-.867615-.21-1.31-.1-.95-.23-2.16-.38-3.6s-.31-3.35-.49-5.33c-.30577-2.192725-.30577-4.417275,0-6.61.442904-2.216482,1.606714-4.224143,3.31-5.71c1.35497-1.207468,2.890115-2.196034,4.55-2.93c1.099765-.500871,2.224587-.944792,3.37-1.33.413291-.16562.842084-.289568,1.28-.37c0,.09-1.76.72-4.49,2-1.600244.752919-3.077038,1.744192-4.38,2.94-1.603779,1.435697-2.701496,3.350565-3.13,5.46-.279687,2.147599-.279687,4.322401,0,6.47.15,2,.28,3.79.39,5.34s.16,2.66.21,3.61c.040735.45637.030673.915851-.03,1.37Z" fill="#263238"/><path d="M245.18,353.84c1.918827.467249,3.740106,1.26956,5.38,2.37-1.917359-.47157-3.737909-1.273559-5.38-2.37Z" fill="#263238"/><path d="M247.19,351.44c.647352.821343,1.251503,1.675833,1.81,2.56c1,1.37,2.07,2.32,2,2.44-.97863-.474845-1.806072-1.212273-2.39-2.13-.735534-.802914-1.227964-1.798177-1.42-2.87Z" fill="#263238"/><path d="M255.91,355c0,0-.07.19-.35.36-.405995.215196-.860655.321973-1.32.31-.630429-.022058-1.261619-.00536-1.89.05-.699598.103249-1.196066.735917-1.13,1.44.076853,2.027604-.016809,4.058081-.28,6.07-.256351-2.022559-.336652-4.063553-.24-6.1.004873-.464392.155263-.915563.43-1.29.294716-.331563.699837-.544785,1.14-.6.667169-.036135,1.336197-.016064,2,.06.563309.041568,1.127885-.061708,1.64-.3Z" fill="#263238"/><g><polygon points="250.46,303.37 297.53,307.15 295.52,301.88 250.92,301.24 250.46,303.37" opacity="0.3"/></g><polygon points="377.86,293.04 100.37,293.04 100.37,300.44 115.21,300.44 107.56,441.18 111.78,441.41 119.45,300.44 362.73,300.44 369.25,441.3 373.49,441.3 366.96,300.44 377.86,300.44 377.86,293.04" fill="#263238"/><polygon points="181.3,249.28 196.69,294.24 266.37,294.24 265.85,291.93 237.68,291.05 224.7,249.25 181.3,249.28" fill="#263238"/><path d="M212.18,270.39c.46,1.85-.33,3.65-1.76,4s-3-.8-3.43-2.65.33-3.64,1.76-4s2.97.81,3.43,2.65Z" fill="#fff"/></g>
<script><![CDATA[
!function(t,n){"object"==typeof exports&&"undefined"!=typeof module?module.exports=n():"function"==typeof __SVGATOR_DEFINE__&&__SVGATOR_DEFINE__.amd?__SVGATOR_DEFINE__(n):((t="undefined"!=typeof globalThis?globalThis:t||self).__SVGATOR_PLAYER__=t.__SVGATOR_PLAYER__||{},t.__SVGATOR_PLAYER__["5c7f360c"]=n())}(this,(function(){"use strict";function t(t,n){var e=Object.keys(t);if(Object.getOwnPropertySymbols){var r=Object.getOwnPropertySymbols(t);n&&(r=r.filter((function(n){return Object.getOwnPropertyDescriptor(t,n).enumerable}))),e.push.apply(e,r)}return e}function n(n){for(var e=1;e<arguments.length;e++){var r=null!=arguments[e]?arguments[e]:{};e%2?t(Object(r),!0).forEach((function(t){u(n,t,r[t])})):Object.getOwnPropertyDescriptors?Object.defineProperties(n,Object.getOwnPropertyDescriptors(r)):t(Object(r)).forEach((function(t){Object.defineProperty(n,t,Object.getOwnPropertyDescriptor(r,t))}))}return n}function e(t){return(e="function"==typeof Symbol&&"symbol"==typeof Symbol.iterator?function(t){return typeof t}:function(t){return t&&"function"==typeof Symbol&&t.constructor===Symbol&&t!==Symbol.prototype?"symbol":typeof t})(t)}function r(t,n){if(!(t instanceof n))throw new TypeError("Cannot call a class as a function")}function i(t,n){for(var e=0;e<n.length;e++){var r=n[e];r.enumerable=r.enumerable||!1,r.configurable=!0,"value"in r&&(r.writable=!0),Object.defineProperty(t,r.key,r)}}function o(t,n,e){return n&&i(t.prototype,n),e&&i(t,e),t}function u(t,n,e){return n in t?Object.defineProperty(t,n,{value:e,enumerable:!0,configurable:!0,writable:!0}):t[n]=e,t}function a(t){return(a=Object.setPrototypeOf?Object.getPrototypeOf:function(t){return t.__proto__||Object.getPrototypeOf(t)})(t)}function l(t,n){return(l=Object.setPrototypeOf||function(t,n){return t.__proto__=n,t})(t,n)}function s(){if("undefined"==typeof Reflect||!Reflect.construct)return!1;if(Reflect.construct.sham)return!1;if("function"==typeof Proxy)return!0;try{return Boolean.prototype.valueOf.call(Reflect.construct(Boolean,[],(function(){}))),!0}catch(t){return!1}}function f(t,n,e){return(f=s()?Reflect.construct:function(t,n,e){var r=[null];r.push.apply(r,n);var i=new(Function.bind.apply(t,r));return e&&l(i,e.prototype),i}).apply(null,arguments)}function c(t,n){if(n&&("object"==typeof n||"function"==typeof n))return n;if(void 0!==n)throw new TypeError("Derived constructors may only return object or undefined");return function(t){if(void 0===t)throw new ReferenceError("this hasn't been initialised - super() hasn't been called");return t}(t)}function h(t,n,e){return(h="undefined"!=typeof Reflect&&Reflect.get?Reflect.get:function(t,n,e){var r=function(t,n){for(;!Object.prototype.hasOwnProperty.call(t,n)&&null!==(t=a(t)););return t}(t,n);if(r){var i=Object.getOwnPropertyDescriptor(r,n);return i.get?i.get.call(e):i.value}})(t,n,e||t)}function v(t){return function(t){if(Array.isArray(t))return y(t)}(t)||function(t){if("undefined"!=typeof Symbol&&null!=t[Symbol.iterator]||null!=t["@@iterator"])return Array.from(t)}(t)||function(t,n){if(!t)return;if("string"==typeof t)return y(t,n);var e=Object.prototype.toString.call(t).slice(8,-1);"Object"===e&&t.constructor&&(e=t.constructor.name);if("Map"===e||"Set"===e)return Array.from(t);if("Arguments"===e||/^(?:Ui|I)nt(?:8|16|32)(?:Clamped)?Array$/.test(e))return y(t,n)}(t)||function(){throw new TypeError("Invalid attempt to spread non-iterable instance.\nIn order to be iterable, non-array objects must have a [Symbol.iterator]() method.")}()}function y(t,n){(null==n||n>t.length)&&(n=t.length);for(var e=0,r=new Array(n);e<n;e++)r[e]=t[e];return r}function g(t,n,e){if(Number.isInteger(t))return t;var r=Math.pow(10,n);return Math[e]((+t+Number.EPSILON)*r)/r}Number.isInteger||(Number.isInteger=function(t){return"number"==typeof t&&isFinite(t)&&Math.floor(t)===t}),Number.EPSILON||(Number.EPSILON=2220446049250313e-31);var d=p(Math.pow(10,-6));function p(t){var n=arguments.length>1&&void 0!==arguments[1]?arguments[1]:6;return g(t,n,"round")}function m(t,n){var e=arguments.length>2&&void 0!==arguments[2]?arguments[2]:d;return Math.abs(t-n)<e}p(Math.pow(10,-2)),p(Math.pow(10,-4));var b=Math.PI/180;function w(t){return t}function A(t,n,e){var r=1-e;return 3*e*r*(t*r+n*e)+e*e*e}function _(){var t=arguments.length>0&&void 0!==arguments[0]?arguments[0]:0,n=arguments.length>1&&void 0!==arguments[1]?arguments[1]:0,e=arguments.length>2&&void 0!==arguments[2]?arguments[2]:1,r=arguments.length>3&&void 0!==arguments[3]?arguments[3]:1;return t<0||t>1||e<0||e>1?null:m(t,n)&&m(e,r)?w:function(i){if(i<=0)return t>0?i*n/t:0===n&&e>0?i*r/e:0;if(i>=1)return e<1?1+(i-1)*(r-1)/(e-1):1===e&&t<1?1+(i-1)*(n-1)/(t-1):1;for(var o,u=0,a=1;u<a;){var l=A(t,e,o=(u+a)/2);if(m(i,l))break;l<i?u=o:a=o}return A(n,r,o)}}function x(){return 1}function k(t){return 1===t?1:0}function S(){var t=arguments.length>0&&void 0!==arguments[0]?arguments[0]:1,n=arguments.length>1&&void 0!==arguments[1]?arguments[1]:0;if(1===t){if(0===n)return k;if(1===n)return x}var e=1/t;return function(t){return t>=1?1:(t+=n*e)-t%e}}var O=Math.sin,j=Math.cos,M=Math.acos,E=Math.asin,P=Math.tan,I=Math.atan2,R=Math.PI/180,F=180/Math.PI,N=Math.sqrt,T=function(){function t(){var n=arguments.length>0&&void 0!==arguments[0]?arguments[0]:1,e=arguments.length>1&&void 0!==arguments[1]?arguments[1]:0,i=arguments.length>2&&void 0!==arguments[2]?arguments[2]:0,o=arguments.length>3&&void 0!==arguments[3]?arguments[3]:1,u=arguments.length>4&&void 0!==arguments[4]?arguments[4]:0,a=arguments.length>5&&void 0!==arguments[5]?arguments[5]:0;r(this,t),this.m=[n,e,i,o,u,a],this.i=null,this.w=null,this.s=null}return o(t,[{key:"determinant",get:function(){var t=this.m;return t[0]*t[3]-t[1]*t[2]}},{key:"isIdentity",get:function(){if(null===this.i){var t=this.m;this.i=1===t[0]&&0===t[1]&&0===t[2]&&1===t[3]&&0===t[4]&&0===t[5]}return this.i}},{key:"point",value:function(t,n){var e=this.m;return{x:e[0]*t+e[2]*n+e[4],y:e[1]*t+e[3]*n+e[5]}}},{key:"translateSelf",value:function(){var t=arguments.length>0&&void 0!==arguments[0]?arguments[0]:0,n=arguments.length>1&&void 0!==arguments[1]?arguments[1]:0;if(!t&&!n)return this;var e=this.m;return e[4]+=e[0]*t+e[2]*n,e[5]+=e[1]*t+e[3]*n,this.w=this.s=this.i=null,this}},{key:"rotateSelf",value:function(){var t=arguments.length>0&&void 0!==arguments[0]?arguments[0]:0;if(t%=360){var n=O(t*=R),e=j(t),r=this.m,i=r[0],o=r[1];r[0]=i*e+r[2]*n,r[1]=o*e+r[3]*n,r[2]=r[2]*e-i*n,r[3]=r[3]*e-o*n,this.w=this.s=this.i=null}return this}},{key:"scaleSelf",value:function(){var t=arguments.length>0&&void 0!==arguments[0]?arguments[0]:1,n=arguments.length>1&&void 0!==arguments[1]?arguments[1]:1;if(1!==t||1!==n){var e=this.m;e[0]*=t,e[1]*=t,e[2]*=n,e[3]*=n,this.w=this.s=this.i=null}return this}},{key:"skewSelf",value:function(t,n){if(n%=360,(t%=360)||n){var e=this.m,r=e[0],i=e[1],o=e[2],u=e[3];t&&(t=P(t*R),e[2]+=r*t,e[3]+=i*t),n&&(n=P(n*R),e[0]+=o*n,e[1]+=u*n),this.w=this.s=this.i=null}return this}},{key:"resetSelf",value:function(){var t=arguments.length>0&&void 0!==arguments[0]?arguments[0]:1,n=arguments.length>1&&void 0!==arguments[1]?arguments[1]:0,e=arguments.length>2&&void 0!==arguments[2]?arguments[2]:0,r=arguments.length>3&&void 0!==arguments[3]?arguments[3]:1,i=arguments.length>4&&void 0!==arguments[4]?arguments[4]:0,o=arguments.length>5&&void 0!==arguments[5]?arguments[5]:0,u=this.m;return u[0]=t,u[1]=n,u[2]=e,u[3]=r,u[4]=i,u[5]=o,this.w=this.s=this.i=null,this}},{key:"recomposeSelf",value:function(){var t=arguments.length>0&&void 0!==arguments[0]?arguments[0]:null,n=arguments.length>1&&void 0!==arguments[1]?arguments[1]:null,e=arguments.length>2&&void 0!==arguments[2]?arguments[2]:null,r=arguments.length>3&&void 0!==arguments[3]?arguments[3]:null,i=arguments.length>4&&void 0!==arguments[4]?arguments[4]:null;return this.isIdentity||this.resetSelf(),t&&(t.x||t.y)&&this.translateSelf(t.x,t.y),n&&this.rotateSelf(n),e&&(e.x&&this.skewSelf(e.x,0),e.y&&this.skewSelf(0,e.y)),!r||1===r.x&&1===r.y||this.scaleSelf(r.x,r.y),i&&(i.x||i.y)&&this.translateSelf(i.x,i.y),this}},{key:"decompose",value:function(){var t=arguments.length>0&&void 0!==arguments[0]?arguments[0]:0,n=arguments.length>1&&void 0!==arguments[1]?arguments[1]:0,e=this.m,r=e[0]*e[0]+e[1]*e[1],i=[[e[0],e[1]],[e[2],e[3]]],o=N(r);if(0===o)return{origin:{x:p(e[4]),y:p(e[5])},translate:{x:p(t),y:p(n)},scale:{x:0,y:0},skew:{x:0,y:0},rotate:0};i[0][0]/=o,i[0][1]/=o;var u=e[0]*e[3]-e[1]*e[2]<0;u&&(o=-o);var a=i[0][0]*i[1][0]+i[0][1]*i[1][1];i[1][0]-=i[0][0]*a,i[1][1]-=i[0][1]*a;var l=N(i[1][0]*i[1][0]+i[1][1]*i[1][1]);if(0===l)return{origin:{x:p(e[4]),y:p(e[5])},translate:{x:p(t),y:p(n)},scale:{x:p(o),y:0},skew:{x:0,y:0},rotate:0};i[1][0]/=l,i[1][1]/=l,a/=l;var s=0;return i[1][1]<0?(s=M(i[1][1])*F,i[0][1]<0&&(s=360-s)):s=E(i[0][1])*F,u&&(s=-s),a=I(a,N(i[0][0]*i[0][0]+i[0][1]*i[0][1]))*F,u&&(a=-a),{origin:{x:p(e[4]),y:p(e[5])},translate:{x:p(t),y:p(n)},scale:{x:p(o),y:p(l)},skew:{x:p(a),y:0},rotate:p(s)}}},{key:"clone",value:function(){var t=this.m;return new this.constructor(t[0],t[1],t[2],t[3],t[4],t[5])}},{key:"toString",value:function(){var t=arguments.length>0&&void 0!==arguments[0]?arguments[0]:" ";if(null===this.s){var n=this.m.map((function(t){return p(t)}));1===n[0]&&0===n[1]&&0===n[2]&&1===n[3]?this.s="translate("+n[4]+t+n[5]+")":this.s="matrix("+n.join(t)+")"}return this.s}}],[{key:"create",value:function(t){return t?Array.isArray(t)?f(this,v(t)):t instanceof this?t.clone():(new this).recomposeSelf(t.origin,t.rotate,t.skew,t.scale,t.translate):new this}}]),t}();function q(t,n,e){return t>=.5?e:n}function B(t,n,e){return 0===t||n===e?n:t*(e-n)+n}function D(t,n,e){var r=B(t,n,e);return r<=0?0:r}function L(t,n,e){var r=B(t,n,e);return r<=0?0:r>=1?1:r}function C(t,n,e){return 0===t?n:1===t?e:{x:B(t,n.x,e.x),y:B(t,n.y,e.y)}}function V(t,n,e){var r=function(t,n,e){return Math.round(B(t,n,e))}(t,n,e);return r<=0?0:r>=255?255:r}function G(t,n,e){return 0===t?n:1===t?e:{r:V(t,n.r,e.r),g:V(t,n.g,e.g),b:V(t,n.b,e.b),a:B(t,null==n.a?1:n.a,null==e.a?1:e.a)}}function z(t,n){for(var e=[],r=0;r<t;r++)e.push(n);return e}function Y(t,n){if(--n<=0)return t;var e=(t=Object.assign([],t)).length;do{for(var r=0;r<e;r++)t.push(t[r])}while(--n>0);return t}var $,U=function(){function t(n){r(this,t),this.list=n,this.length=n.length}return o(t,[{key:"setAttribute",value:function(t,n){for(var e=this.list,r=0;r<this.length;r++)e[r].setAttribute(t,n)}},{key:"removeAttribute",value:function(t){for(var n=this.list,e=0;e<this.length;e++)n[e].removeAttribute(t)}},{key:"style",value:function(t,n){for(var e=this.list,r=0;r<this.length;r++)e[r].style[t]=n}}]),t}(),Q=/-./g,H=function(t,n){return n.toUpperCase()};function J(t){return"function"==typeof t?t:q}function Z(t){return t?"function"==typeof t?t:Array.isArray(t)?function(t){var n=arguments.length>1&&void 0!==arguments[1]?arguments[1]:w;if(!Array.isArray(t))return n;switch(t.length){case 1:return S(t[0])||n;case 2:return S(t[0],t[1])||n;case 4:return _(t[0],t[1],t[2],t[3])||n}return n}(t,null):function(t,n){var e=arguments.length>2&&void 0!==arguments[2]?arguments[2]:w;switch(t){case"linear":return w;case"steps":return S(n.steps||1,n.jump||0)||e;case"bezier":case"cubic-bezier":return _(n.x1||0,n.y1||0,n.x2||0,n.y2||0)||e}return e}(t.type,t.value,null):null}function K(t,n,e){var r=arguments.length>3&&void 0!==arguments[3]&&arguments[3],i=n.length-1;if(t<=n[0].t)return r?[0,0,n[0].v]:n[0].v;if(t>=n[i].t)return r?[i,1,n[i].v]:n[i].v;var o,u=n[0],a=null;for(o=1;o<=i;o++){if(!(t>n[o].t)){a=n[o];break}u=n[o]}return null==a?r?[i,1,n[i].v]:n[i].v:u.t===a.t?r?[o,1,a.v]:a.v:(t=(t-u.t)/(a.t-u.t),u.e&&(t=u.e(t)),r?[o,t,e(t,u.v,a.v)]:e(t,u.v,a.v))}function W(t,n){var e=arguments.length>2&&void 0!==arguments[2]?arguments[2]:null;return t&&t.length?"function"!=typeof n?null:("function"!=typeof e&&(e=null),function(r){var i=K(r,t,n);return null!=i&&e&&(i=e(i)),i}):null}function X(t,n){return t.t-n.t}function tt(t,n,r,i,o){var u,a="@"===r[0],l="#"===r[0],s=$[r],f=q;switch(a?(u=r.substr(1),r=u.replace(Q,H)):l&&(r=r.substr(1)),e(s)){case"function":if(f=s(i,o,K,Z,r,a,n,t),l)return f;break;case"string":f=W(i,J(s));break;case"object":if((f=W(i,J(s.i),s.f))&&"function"==typeof s.u)return s.u(n,f,r,a,t)}return f?function(t,n,e){if(arguments.length>3&&void 0!==arguments[3]&&arguments[3])return t instanceof U?function(r){return t.style(n,e(r))}:function(r){return t.style[n]=e(r)};if(Array.isArray(n)){var r=n.length;return function(i){var o=e(i);if(null==o)for(var u=0;u<r;u++)t[u].removeAttribute(n);else for(var a=0;a<r;a++)t[a].setAttribute(n,o)}}return function(r){var i=e(r);null==i?t.removeAttribute(n):t.setAttribute(n,i)}}(n,r,f,a):null}function nt(t,n,r,i){if(!i||"object"!==e(i))return null;var o=null,u=null;return Array.isArray(i)?u=function(t){if(!t||!t.length)return null;for(var n=0;n<t.length;n++)t[n].e&&(t[n].e=Z(t[n].e));return t.sort(X)}(i):(u=i.keys,o=i.data||null),u?tt(t,n,r,u,o):null}function et(t,n,e){if(!e)return null;var r=[];for(var i in e)if(e.hasOwnProperty(i)){var o=nt(t,n,i,e[i]);o&&r.push(o)}return r.length?r:null}function rt(t,n){if(!n.settings.duration||n.settings.duration<0)return null;var e,r,i,o,u,a=function(t,n){if(!n)return null;var e=[];if(Array.isArray(n))for(var r=n.length,i=0;i<r;i++){var o=n[i];if(2===o.length){var u=null;if("string"==typeof o[0])u=t.getElementById(o[0]);else if(Array.isArray(o[0])){u=[];for(var a=0;a<o[0].length;a++)if("string"==typeof o[0][a]){var l=t.getElementById(o[0][a]);l&&u.push(l)}u=u.length?1===u.length?u[0]:new U(u):null}if(u){var s=et(t,u,o[1]);s&&(e=e.concat(s))}}}else for(var f in n)if(n.hasOwnProperty(f)){var c=t.getElementById(f);if(c){var h=et(t,c,n[f]);h&&(e=e.concat(h))}}return e.length?e:null}(t,n.elements);return a?(e=a,r=n.settings,i=r.duration,o=e.length,u=null,function(t,n){var a=r.iterations||1/0,l=(r.alternate&&a%2==0)^r.direction>0?i:0,s=t%i,f=1+(t-s)/i;n*=r.direction,r.alternate&&f%2==0&&(n=-n);var c=!1;if(f>a)s=l,c=!0,-1===r.fill&&(s=r.direction>0?0:i);else if(n<0&&(s=i-s),s===u)return!1;u=s;for(var h=0;h<o;h++)e[h](s);return c}):null}function it(t,n){for(var e=n.querySelectorAll("svg"),r=0;r<e.length;r++)if(e[r].id===t.root&&!e[r].svgatorAnimation)return e[r].svgatorAnimation=!0,e[r];return null}function ot(t){var n=function(t){return t.shadowRoot};return document?Array.from(t.querySelectorAll(":not("+["a","area","audio","br","canvas","circle","datalist","embed","g","head","hr","iframe","img","input","link","object","path","polygon","rect","script","source","style","svg","title","track","video"].join()+")")).filter(n).map(n):[]}function ut(t){var n=arguments.length>1&&void 0!==arguments[1]?arguments[1]:document,e=arguments.length>2&&void 0!==arguments[2]?arguments[2]:0,r=it(t,n);if(r)return r;if(e>=20)return null;for(var i=ot(n),o=0;o<i.length;o++){var u=ut(t,i[o],e+1);if(u)return u}return null}function at(t,n){if($=n,!t||!t.root||!Array.isArray(t.animations))return null;var e=ut(t);if(!e)return null;var r=t.animations.map((function(t){return rt(e,t)})).filter((function(t){return!!t}));return r.length?{svg:e,animations:r,animationSettings:t.animationSettings,options:t.options||void 0}:null}function lt(t){var n=arguments.length>1&&void 0!==arguments[1]?arguments[1]:null,e=arguments.length>2&&void 0!==arguments[2]?arguments[2]:Number,r=arguments.length>3&&void 0!==arguments[3]?arguments[3]:"undefined"!=typeof BigInt&&BigInt,i="0x"+(t.replace(/[^0-9a-fA-F]+/g,"")||27);return n&&r&&e.isSafeInteger&&!e.isSafeInteger(+i)?e(r(i))%n+n:+i}function st(t,n,e){return!t||!e||n>t.length?t:t.substring(0,n)+st(t.substring(n+1),e,e)}function ft(t){var n=arguments.length>1&&void 0!==arguments[1]?arguments[1]:27;return!t||t%n?t%n:[0,1].includes(n)?n:ft(t/n,n)}function ct(t,n,e){if(t&&t.length){var r=lt(e),i=ft(r)+5,o=st(t,ft(r,5),i);return o=o.replace(/\x7c$/g,"==").replace(/\x2f$/g,"="),o=function(t,n,e){var r=+("0x"+t.substring(0,4));t=t.substring(4);for(var i=lt(n,r)%r+e%27,o=[],u=0;u<t.length;u+=2)if("|"!==t[u]){var a=+("0x"+t[u]+t[u+1])-i;o.push(a)}else{var l=+("0x"+t.substring(u+1,u+1+4))-i;u+=3,o.push(l)}return String.fromCharCode.apply(String,o)}(o=(o=atob(o)).replace(/[\x41-\x5A]/g,""),n,r),o=JSON.parse(o)}}var ht=[{key:"alternate",def:!1},{key:"fill",def:1},{key:"iterations",def:0},{key:"direction",def:1},{key:"speed",def:1},{key:"fps",def:100}],vt=function(){function t(n,e){var i=this,o=arguments.length>2&&void 0!==arguments[2]?arguments[2]:null;r(this,t),this._id=0,this._running=!1,this._rollingBack=!1,this._animations=n,this._settings=e,(!o||o<"2022-05-02")&&delete this._settings.speed,ht.forEach((function(t){i._settings[t.key]=i._settings[t.key]||t.def})),this.duration=e.duration,this.offset=e.offset||0,this.rollbackStartOffset=0}return o(t,[{key:"alternate",get:function(){return this._settings.alternate}},{key:"fill",get:function(){return this._settings.fill}},{key:"iterations",get:function(){return this._settings.iterations}},{key:"direction",get:function(){return this._settings.direction}},{key:"speed",get:function(){return this._settings.speed}},{key:"fps",get:function(){return this._settings.fps}},{key:"maxFiniteDuration",get:function(){return this.iterations>0?this.iterations*this.duration:this.duration}},{key:"_apply",value:function(t){for(var n=arguments.length>1&&void 0!==arguments[1]?arguments[1]:{},e=this._animations,r=e.length,i=0,o=0;o<r;o++)n[o]?i++:(n[o]=e[o](t,1),n[o]&&i++);return i}},{key:"_rollback",value:function(t){var n=this,e=1/0,r=null;this.rollbackStartOffset=t,this._rollingBack=!0,this._running=!0;this._id=window.requestAnimationFrame((function i(o){if(n._rollingBack){null==r&&(r=o);var u=Math.round(t-(o-r)*n.speed);if(u>n.duration&&e!==1/0){var a=!!n.alternate&&u/n.duration%2>1,l=u%n.duration;u=(l+=a?n.duration:0)||n.duration}var s=(n.fps?1e3/n.fps:0)*n.speed,f=Math.max(0,u);f<=e-s&&(n.offset=f,e=f,n._apply(f));var c=n.iterations>0&&-1===n.fill&&u>=n.maxFiniteDuration;(u<=0||n.offset<u||c)&&n.stop(),n._id=window.requestAnimationFrame(i)}}))}},{key:"_start",value:function(){var t=this,n=arguments.length>0&&void 0!==arguments[0]?arguments[0]:0,e=-1/0,r=null,i={};this._running=!0;var o=function o(u){null==r&&(r=u);var a=Math.round((u-r)*t.speed+n),l=(t.fps?1e3/t.fps:0)*t.speed;if(a>=e+l&&!t._rollingBack&&(t.offset=a,e=a,t._apply(a,i)===t._animations.length))return void t.pause(!0);t._id=window.requestAnimationFrame(o)};this._id=window.requestAnimationFrame(o)}},{key:"_pause",value:function(){this._id&&window.cancelAnimationFrame(this._id),this._running=!1}},{key:"play",value:function(){if(!this._running)return this._rollingBack?this._rollback(this.offset):this._start(this.offset)}},{key:"stop",value:function(){this._pause(),this.offset=0,this.rollbackStartOffset=0,this._rollingBack=!1,this._apply(0)}},{key:"reachedToEnd",value:function(){return this.iterations>0&&this.offset>=this.iterations*this.duration}},{key:"restart",value:function(){var t=arguments.length>0&&void 0!==arguments[0]&&arguments[0];this.stop(t),this.play(t)}},{key:"pause",value:function(){this._pause()}},{key:"reverse",value:function(){this.direction=-this.direction}}],[{key:"build",value:function(t,n){delete t.animationSettings,t.options=ct(t.options,t.root,"5c7f360c"),t.animations.map((function(n){n.settings=ct(n.s,t.root,"5c7f360c"),delete n.s,t.animationSettings||(t.animationSettings=n.settings)}));var e=t.version;if(!(t=at(t,n)))return null;var r=t.options||{},i=new this(t.animations,t.animationSettings,e);return{el:t.svg,options:r,player:i}}},{key:"push",value:function(t){return this.build(t)}},{key:"init",value:function(){var t=this,n=window.__SVGATOR_PLAYER__&&window.__SVGATOR_PLAYER__["5c7f360c"];Array.isArray(n)&&n.splice(0).forEach((function(n){return t.build(n)}))}}]),t}();function yt(t){return p(t)+""}function gt(t){var n=arguments.length>1&&void 0!==arguments[1]?arguments[1]:" ";return t&&t.length?t.map(yt).join(n):""}function dt(t){if(!t)return"transparent";if(null==t.a||t.a>=1){var n=function(t){return 1===(t=parseInt(t).toString(16)).length?"0"+t:t},e=function(t){return t.charAt(0)===t.charAt(1)},r=n(t.r),i=n(t.g),o=n(t.b);return e(r)&&e(i)&&e(o)&&(r=r.charAt(0),i=i.charAt(0),o=o.charAt(0)),"#"+r+i+o}return"rgba("+t.r+","+t.g+","+t.b+","+t.a+")"}function pt(t){return t?"url(#"+t+")":"none"}!function(){for(var t=0,n=["ms","moz","webkit","o"],e=0;e<n.length&&!window.requestAnimationFrame;++e)window.requestAnimationFrame=window[n[e]+"RequestAnimationFrame"],window.cancelAnimationFrame=window[n[e]+"CancelAnimationFrame"]||window[n[e]+"CancelRequestAnimationFrame"];window.requestAnimationFrame||(window.requestAnimationFrame=function(n){var e=Date.now(),r=Math.max(0,16-(e-t)),i=window.setTimeout((function(){n(e+r)}),r);return t=e+r,i},window.cancelAnimationFrame=window.clearTimeout)}();var mt={f:null,i:function(t,n,e){return 0===t?n:1===t?e:{x:D(t,n.x,e.x),y:D(t,n.y,e.y)}},u:function(t,n){return function(e){var r=n(e);t.setAttribute("rx",yt(r.x)),t.setAttribute("ry",yt(r.y))}}},bt={f:null,i:function(t,n,e){return 0===t?n:1===t?e:{width:D(t,n.width,e.width),height:D(t,n.height,e.height)}},u:function(t,n){return function(e){var r=n(e);t.setAttribute("width",yt(r.width)),t.setAttribute("height",yt(r.height))}}};Object.freeze({M:2,L:2,Z:0,H:1,V:1,C:6,Q:4,T:2,S:4,A:7});var wt={},At=null;function _t(t){var n=function(){if(At)return At;if("object"!==("undefined"==typeof document?"undefined":e(document))||!document.createElementNS)return{};var t=document.createElementNS("http://www.w3.org/2000/svg","svg");return t&&t.style?(t.style.position="absolute",t.style.opacity="0.01",t.style.zIndex="-9999",t.style.left="-9999px",t.style.width="1px",t.style.height="1px",At={svg:t}):{}}().svg;if(!n)return function(t){return null};var r=document.createElementNS(n.namespaceURI,"path");r.setAttributeNS(null,"d",t),r.setAttributeNS(null,"fill","none"),r.setAttributeNS(null,"stroke","none"),n.appendChild(r);var i=r.getTotalLength();return function(t){var n=r.getPointAtLength(i*t);return{x:n.x,y:n.y}}}function xt(t){return wt[t]?wt[t]:wt[t]=_t(t)}function kt(t,n,e,r){if(!t||!r)return!1;var i=["M",t.x,t.y];if(n&&e&&(i.push("C"),i.push(n.x),i.push(n.y),i.push(e.x),i.push(e.y)),n?!e:e){var o=n||e;i.push("Q"),i.push(o.x),i.push(o.y)}return n||e||i.push("L"),i.push(r.x),i.push(r.y),i.join(" ")}function St(t,n,e,r){var i=arguments.length>4&&void 0!==arguments[4]?arguments[4]:1,o=kt(t,n,e,r),u=xt(o);try{return u(i)}catch(t){return null}}function Ot(t,n,e){return t+(n-t)*e}function jt(t,n,e){var r=arguments.length>3&&void 0!==arguments[3]&&arguments[3],i={x:Ot(t.x,n.x,e),y:Ot(t.y,n.y,e)};return r&&(i.a=Mt(t,n)),i}function Mt(t,n){return Math.atan2(n.y-t.y,n.x-t.x)}function Et(t,n,e,r){var i=1-r;return i*i*t+2*i*r*n+r*r*e}function Pt(t,n,e,r){return 2*(1-r)*(n-t)+2*r*(e-n)}function It(t,n,e,r){var i=arguments.length>4&&void 0!==arguments[4]&&arguments[4],o=St(t,n,null,e,r);return o||(o={x:Et(t.x,n.x,e.x,r),y:Et(t.y,n.y,e.y,r)}),i&&(o.a=Rt(t,n,e,r)),o}function Rt(t,n,e,r){return Math.atan2(Pt(t.y,n.y,e.y,r),Pt(t.x,n.x,e.x,r))}function Ft(t,n,e,r,i){var o=i*i;return i*o*(r-t+3*(n-e))+3*o*(t+e-2*n)+3*i*(n-t)+t}function Nt(t,n,e,r,i){var o=1-i;return 3*(o*o*(n-t)+2*o*i*(e-n)+i*i*(r-e))}function Tt(t,n,e,r,i){var o=arguments.length>5&&void 0!==arguments[5]&&arguments[5],u=St(t,n,e,r,i);return u||(u={x:Ft(t.x,n.x,e.x,r.x,i),y:Ft(t.y,n.y,e.y,r.y,i)}),o&&(u.a=qt(t,n,e,r,i)),u}function qt(t,n,e,r,i){return Math.atan2(Nt(t.y,n.y,e.y,r.y,i),Nt(t.x,n.x,e.x,r.x,i))}function Bt(t,n,e){var r=arguments.length>3&&void 0!==arguments[3]&&arguments[3];if(Lt(n)){if(Ct(e))return It(n,e.start,e,t,r)}else if(Lt(e)){if(Vt(n))return It(n,n.end,e,t,r)}else{if(Vt(n))return Ct(e)?Tt(n,n.end,e.start,e,t,r):It(n,n.end,e,t,r);if(Ct(e))return It(n,e.start,e,t,r)}return jt(n,e,t,r)}function Dt(t,n,e){var r=Bt(t,n,e,!0);return r.a=function(t){return arguments.length>1&&void 0!==arguments[1]&&arguments[1]?t+Math.PI:t}(r.a)/b,r}function Lt(t){return!t.type||"corner"===t.type}function Ct(t){return null!=t.start&&!Lt(t)}function Vt(t){return null!=t.end&&!Lt(t)}var Gt=new T;var zt={f:yt,i:B},Yt={f:yt,i:L};function $t(t,n,e){return t.map((function(t){return function(t,n,e){var r=t.v;if(!r||"g"!==r.t||r.s||!r.v||!r.r)return t;var i=e.getElementById(r.r),o=i&&i.querySelectorAll("stop")||[];return r.s=r.v.map((function(t,n){var e=o[n]&&o[n].getAttribute("offset");return{c:t,o:e=p(parseInt(e)/100)}})),delete r.v,t}(t,0,e)}))}var Ut={gt:"gradientTransform",c:{x:"cx",y:"cy"},rd:"r",f:{x:"x1",y:"y1"},to:{x:"x2",y:"y2"}};function Qt(t,n,r,i,o,u,a,l){return $t(t,0,l),n=function(t,n,e){for(var r,i,o,u=t.length-1,a={},l=0;l<=u;l++)(r=t[l]).e&&(r.e=n(r.e)),r.v&&"g"===(i=r.v).t&&i.r&&(o=e.getElementById(i.r))&&(a[i.r]={e:o,s:o.querySelectorAll("stop")});return a}(t,i,l),function(i){var o=r(i,t,Ht);if(!o)return"none";if("c"===o.t)return dt(o.v);if("g"===o.t){if(!n[o.r])return pt(o.r);var u=n[o.r];return function(t,n){for(var e=t.s,r=e.length;r<n.length;r++){var i=e[e.length-1].cloneNode();i.id=Kt(i.id),t.e.appendChild(i),e=t.s=t.e.querySelectorAll("stop")}for(var o=0,u=e.length,a=n.length-1;o<u;o++)e[o].setAttribute("stop-color",dt(n[Math.min(o,a)].c)),e[o].setAttribute("offset",n[Math.min(o,a)].o)}(u,o.s),Object.keys(Ut).forEach((function(t){if(void 0!==o[t])if("object"!==e(Ut[t])){var n,r="gt"===t?(n=o[t],Array.isArray(n)?"matrix("+n.join(" ")+")":""):o[t],i=Ut[t];u.e.setAttribute(i,r)}else Object.keys(Ut[t]).forEach((function(n){if(void 0!==o[t][n]){var e=o[t][n],r=Ut[t][n];u.e.setAttribute(r,e)}}))})),pt(o.r)}return"none"}}function Ht(t,e,r){if(0===t)return e;if(1===t)return r;if(e&&r){var i=e.t;if(i===r.t)switch(e.t){case"c":return{t:i,v:G(t,e.v,r.v)};case"g":if(e.r===r.r){var o={t:i,s:Jt(t,e.s,r.s),r:e.r};return e.gt&&r.gt&&(o.gt=function(t,n,e){var r=n.length;if(r!==e.length)return q(t,n,e);for(var i=new Array(r),o=0;o<r;o++)i[o]=B(t,n[o],e[o]);return i}(t,e.gt,r.gt)),e.c?(o.c=C(t,e.c,r.c),o.rd=D(t,e.rd,r.rd)):e.f&&(o.f=C(t,e.f,r.f),o.to=C(t,e.to,r.to)),o}}if("c"===e.t&&"g"===r.t||"c"===r.t&&"g"===e.t){var u="c"===e.t?e:r,a="g"===e.t?n({},e):n({},r),l=a.s.map((function(t){return{c:u.v,o:t.o}}));return a.s="c"===e.t?Jt(t,l,a.s):Jt(t,a.s,l),a}}return q(t,e,r)}function Jt(t,n,e){if(n.length===e.length)return n.map((function(n,r){return Zt(t,n,e[r])}));for(var r=Math.max(n.length,e.length),i=[],o=0;o<r;o++){var u=Zt(t,n[Math.min(o,n.length-1)],e[Math.min(o,e.length-1)]);i.push(u)}return i}function Zt(t,n,e){return{o:L(t,n.o,e.o||0),c:G(t,n.c,e.c||{})}}function Kt(t){return t.replace(/-fill-([0-9]+)$/,(function(t,n){return"-fill-"+(+n+1)}))}var Wt={fill:Qt,"fill-opacity":Yt,stroke:Qt,"stroke-opacity":Yt,"stroke-width":zt,"stroke-dashoffset":{f:yt,i:B},"stroke-dasharray":{f:function(t){var n=arguments.length>1&&void 0!==arguments[1]?arguments[1]:" ";return t&&t.length>0&&(t=t.map((function(t){return p(t,4)}))),gt(t,n)},i:function(t,n,e){var r,i,o,u=n.length,a=e.length;if(u!==a)if(0===u)n=z(u=a,0);else if(0===a)a=u,e=z(u,0);else{var l=(o=(r=u)*(i=a)/function(t,n){for(var e;n;)e=n,n=t%n,t=e;return t||1}(r,i))<0?-o:o;n=Y(n,Math.floor(l/u)),e=Y(e,Math.floor(l/a)),u=a=l}for(var s=[],f=0;f<u;f++)s.push(p(D(t,n[f],e[f])));return s}},opacity:Yt,transform:function(t,n,r,i){if(!(t=function(t,n){if(!t||"object"!==e(t))return null;var r=!1;for(var i in t)t.hasOwnProperty(i)&&(t[i]&&t[i].length?(t[i].forEach((function(t){t.e&&(t.e=n(t.e))})),r=!0):delete t[i]);return r?t:null}(t,i)))return null;var o=function(e,i,o){var u=arguments.length>3&&void 0!==arguments[3]?arguments[3]:null;return t[e]?r(i,t[e],o):n&&n[e]?n[e]:u};return n&&n.a&&t.o?function(n){var e=r(n,t.o,Dt);return Gt.recomposeSelf(e,o("r",n,B,0)+e.a,o("k",n,C),o("s",n,C),o("t",n,C)).toString()}:function(t){return Gt.recomposeSelf(o("o",t,Bt,null),o("r",t,B,0),o("k",t,C),o("s",t,C),o("t",t,C)).toString()}},r:zt,"#size":bt,"#radius":mt,_:function(t,n){if(Array.isArray(t))for(var e=0;e<t.length;e++)this[t[e]]=n;else this[t]=n}},Xt=function(t){!function(t,n){if("function"!=typeof n&&null!==n)throw new TypeError("Super expression must either be null or a function");t.prototype=Object.create(n&&n.prototype,{constructor:{value:t,writable:!0,configurable:!0}}),n&&l(t,n)}(u,t);var n,e,i=(n=u,e=s(),function(){var t,r=a(n);if(e){var i=a(this).constructor;t=Reflect.construct(r,arguments,i)}else t=r.apply(this,arguments);return c(this,t)});function u(){return r(this,u),i.apply(this,arguments)}return o(u,null,[{key:"build",value:function(t){var n=h(a(u),"build",this).call(this,t,Wt);if(!n)return null;n.el,n.options,function(t,n,e){t.play()}(n.player)}}]),u}(vt);return Xt.init(),Xt}));
(function(s,i,o,w,d,a,b){w[o]=w[o]||{};w[o][s]=w[o][s]||[];w[o][s].push(i);})('5c7f360c',{"root":"eSmylspuPe21","version":"2022-05-04","animations":[{"elements":{"eSmylspuPe214":{"transform":{"data":{"t":{"x":-141.025005,"y":-207.830002}},"keys":{"o":[{"t":0,"v":{"x":141.025005,"y":207.830002,"type":"corner"}},{"t":1500,"v":{"x":141.025005,"y":197.830002,"type":"corner"}},{"t":3000,"v":{"x":141.025005,"y":207.830002,"type":"corner"}}]}}}},"s":"MKDA1ZGI1VzVjOWVhZmXFjOWJhZWEzYTlhOFkR1Yzc0NmQ2YTZhNmE2PNjVjOWVhM2FjOWY5ZGGFlYTNhOWE4NWM3NDDZiNjY1Y2EzYWU5ZmFHjOWJhZWEzS2E5YThhEZDVjNzQ2YTY2NWNhMNEdhM0xhNmE2NWM3NDHZiNjY1YzliTmE2YWUJ5ZmFjYTg5YmFlOWY1YYzc0YTA5YmE2YWQ5ZRjY2NWNhZGFhOWY5ZjRllNWM3NDZiNjY1Y2EFwYWFhZDVjNzQ2YjZhHNmFiNw|"}],"options":"MHDAxMDg4MmY4MDgxNmCU3ZjgxMmY0NzJmNzkR3YzZlNzEyZjhh"},'__SVGATOR_PLAYER__',window,document)
]]></script>
</svg>
