<svg width="96" height="56" viewBox="0 0 96 56" fill="none" xmlns="http://www.w3.org/2000/svg">
<g id="arrow 1" clip-path="url(#clip0_4_143)" filter="url(#filter0_d_4_143)">
<g id="Layer 1">
<path id="Vector" d="M50.8292 46.8283L90.8285 6.82754C92.3905 5.26553 92.3905 2.73331 90.8285 1.1702C89.2665 -0.391816 86.7343 -0.391816 85.1712 1.1702L48 38.3417L10.8288 1.1713C9.2668 -0.390716 6.7346 -0.390716 5.1715 1.1713C4.3905 1.9523 4 2.97641 4 3.99942C4 5.02243 4.3905 6.04654 5.1715 6.82754L45.173 46.8272C45.9232 47.5774 46.9407 47.9987 48.0011 47.9987C49.0615 47.9987 50.079 47.5774 50.8292 46.8272V46.8283Z" fill="url(#paint0_linear_4_143)"/>
</g>
</g>
<defs>
<filter id="filter0_d_4_143" x="0" y="0" width="96" height="56" filterUnits="userSpaceOnUse" color-interpolation-filters="sRGB">
<feFlood flood-opacity="0" result="BackgroundImageFix"/>
<feColorMatrix in="SourceAlpha" type="matrix" values="0 0 0 0 0 0 0 0 0 0 0 0 0 0 0 0 0 0 127 0" result="hardAlpha"/>
<feOffset dy="4"/>
<feGaussianBlur stdDeviation="2"/>
<feComposite in2="hardAlpha" operator="out"/>
<feColorMatrix type="matrix" values="0 0 0 0 0 0 0 0 0 0 0 0 0 0 0 0 0 0 0.25 0"/>
<feBlend mode="normal" in2="BackgroundImageFix" result="effect1_dropShadow_4_143"/>
<feBlend mode="normal" in="SourceGraphic" in2="effect1_dropShadow_4_143" result="shape"/>
</filter>
<linearGradient id="paint0_linear_4_143" x1="4" y1="23.9998" x2="92" y2="23.9998" gradientUnits="userSpaceOnUse">
<stop stop-color="#2193B0"/>
<stop offset="1" stop-color="#6DD5ED"/>
</linearGradient>
<clipPath id="clip0_4_143">
<rect width="88" height="48" fill="white" transform="translate(4)"/>
</clipPath>
</defs>
</svg>
