<svg width="730" height="698" viewBox="0 0 730 698" fill="none" xmlns="http://www.w3.org/2000/svg">
<path d="M571.497 188.175C623.061 218.044 676.8 248.879 704.784 296.156C732.839 342.683 734.394 405.581 722.148 462.626C709.901 519.67 683.031 571.539 644.935 606.46C606.016 642.056 555.116 660.636 506.076 675.61C457.711 691.407 411.202 703.599 371.329 693.744C330.709 683.817 295.981 651.773 249.909 627.719C203.836 603.665 146.348 588.349 119.468 553.275C92.5846 518.2 95.6315 462.545 132.015 429.731C168.474 396.166 238.27 385.439 269.487 351.374C300.772 316.561 292.8 257.583 311.464 212.492C330.876 167.472 377.75 135.656 424.827 133.346C472.655 131.109 520.616 159.122 571.501 188.172L571.497 188.175Z" fill="#208199"/>
<g clip-path="url(#clip0_0_1)">
<path d="M458.592 102.745C447.37 93.6646 444.147 83.5651 442.971 74.5144C441.795 65.4638 447.266 49.1004 458.395 41.5382C469.524 33.976 478.417 24.3826 490.494 26.0189C502.572 27.6556 513.378 35.4823 524.748 44.8857C536.117 54.2894 538.134 62.606 541.815 75.5685C545.496 88.5311 534.683 103.757 521.325 115.966C507.967 128.174 500.642 121.484 487.892 118.66C476.985 116.244 467.097 109.626 458.592 102.744L458.592 102.745Z" fill="#218199"/>
</g>
<path d="M2.41161 554.297C3.19599 545.877 7.96279 540.962 12.9547 537.379C17.9466 533.797 30.1672 530.971 39.4322 533.797C48.6972 536.623 58.2529 537.698 62.3407 544.047C66.4285 550.396 66.2289 558.197 65.3106 566.795C64.3919 575.393 60.1987 579.135 53.889 585.225C47.5793 591.315 33.8014 591.196 20.7822 588.847C7.76321 586.499 8.73799 580.749 5.08741 573.681C1.96417 567.635 1.81729 560.678 2.41161 554.296V554.297Z" fill="#218199"/>
<path d="M282.412 23.2966C283.196 14.8772 287.963 9.96165 292.955 6.37926C297.947 2.79686 310.167 -0.0294698 319.432 2.79686C328.697 5.6232 338.253 6.69781 342.341 13.0466C346.429 19.3956 346.229 27.1972 345.311 35.7952C344.392 44.3931 340.199 48.1348 333.889 54.2249C327.579 60.3151 313.801 60.1958 300.782 57.8473C287.763 55.4988 288.738 49.7489 285.087 42.6814C281.964 36.6349 281.817 29.6775 282.412 23.2963V23.2966Z" fill="#218199"/>
<defs>
<clipPath id="clip0_0_1">
<rect width="92.1634" height="104.304" fill="white" transform="translate(424 82.7221) rotate(-55.2461)"/>
</clipPath>
</defs>
</svg>
