<?xml version="1.0" encoding="UTF-8"?>
<svg id="Layer_2" data-name="Layer 2" xmlns="http://www.w3.org/2000/svg" viewBox="0 0 933.67 952.24">
  <path d="m721.67,58.75c-147.03-67.99-345.07-87.05-475.04-2.59C147.88,120.38,59.47,235.51,12.63,391.48c-46.84,155.97,37.8,401.6,233.61,473.42,216.44,78.8,248.03-167.37,341.2-216.48,93.16-49.11,268.75,23.38,328.68-135.86,68.77-181.74-78.88-399.95-194.44-453.8Z" style="fill: #218199;"/>
  <path d="m768.19,698.52c.95-10.7,6.75-16.95,12.82-21.51,6.07-4.55,20.93-8.15,32.19-4.55,11.27,3.59,22.88,4.96,27.85,13.03,4.97,8.07,4.73,17.99,3.61,28.92-1.12,10.93-6.22,15.69-13.89,23.43-7.67,7.74-24.42,7.59-40.25,4.61-15.83-2.99-14.64-10.3-19.08-19.28-3.8-7.69-3.98-16.53-3.25-24.65h0Z" style="fill: #218199;"/>
  <path d="m561.86,862.4c2.05-20.99,14.5-33.24,27.54-42.17,13.04-8.93,44.96-15.97,69.16-8.93,24.2,7.04,49.16,9.72,59.83,25.55,10.68,15.83,10.16,35.27,7.76,56.7-2.4,21.43-13.35,30.76-29.83,45.94-16.48,15.18-52.47,14.88-86.47,9.03-34-5.85-31.46-20.19-40.99-37.8-8.16-15.07-8.54-32.41-6.99-48.32h0Z" style="fill: #218199;"/>
</svg>