<svg width="28" height="28" viewBox="0 0 28 28" fill="none" xmlns="http://www.w3.org/2000/svg">
<path d="M12.0049 4.50333L2.12324 21C1.9195 21.3528 1.8117 21.7528 1.81056 22.1603C1.80942 22.5677 1.91497 22.9683 2.11673 23.3223C2.31849 23.6762 2.60942 23.9712 2.96056 24.1778C3.31171 24.3844 3.71083 24.4955 4.11824 24.5H23.8816C24.289 24.4955 24.6881 24.3844 25.0392 24.1778C25.3904 23.9712 25.6813 23.6762 25.8831 23.3223C26.0848 22.9683 26.1904 22.5677 26.1893 22.1603C26.1881 21.7528 26.0803 21.3528 25.8766 21L15.9949 4.50333C15.7869 4.16045 15.4941 3.87697 15.1446 3.68023C14.7952 3.48348 14.4009 3.38013 13.9999 3.38013C13.5989 3.38013 13.2046 3.48348 12.8552 3.68023C12.5057 3.87697 12.2129 4.16045 12.0049 4.50333Z" stroke="white" stroke-width="3" stroke-linecap="round" stroke-linejoin="round"/>
<path d="M14 10.5V15.1667" stroke="white" stroke-width="3" stroke-linecap="round" stroke-linejoin="round"/>
<path d="M14 19.8334H14.0117" stroke="white" stroke-width="3" stroke-linecap="round" stroke-linejoin="round"/>
</svg>
